<svg width="162" height="48" viewBox="0 0 162 48" fill="none" xmlns="http://www.w3.org/2000/svg">
<path fill-rule="evenodd" clip-rule="evenodd" d="M8.5 2.92188C7.67157 2.92188 7 3.59345 7 4.42188V19.5781C7 20.4066 7.67157 21.0781 8.5 21.0781H15.5C16.3284 21.0781 17 20.4066 17 19.5781V4.42188C17 3.59345 16.3284 2.92188 15.5 2.92188H15.4166L15.1731 3.50633C15.0178 3.87894 14.6537 4.12165 14.25 4.12165H9.75C9.34632 4.12165 8.98223 3.87894 8.82695 3.50633L8.58338 2.92188H8.5ZM5 4.42188C5 2.48888 6.567 0.921875 8.5 0.921875H15.5C17.433 0.921875 19 2.48888 19 4.42188V19.5781C19 21.5111 17.433 23.0781 15.5 23.0781H8.5C6.567 23.0781 5 21.5111 5 19.5781V4.42188Z" fill="#FF3F3A"/>
<path d="M43.98 13.613C44.0827 13.613 44.1713 13.6527 44.246 13.732L44.988 14.537C44.5773 15.0457 44.071 15.4353 43.469 15.706C42.8717 15.9767 42.153 16.112 41.313 16.112C40.5617 16.112 39.885 15.9837 39.283 15.727C38.6857 15.4703 38.1747 15.1133 37.75 14.656C37.3253 14.1987 36.9987 13.6527 36.77 13.018C36.546 12.3833 36.434 11.6903 36.434 10.939C36.434 10.1783 36.56 9.483 36.812 8.853C37.064 8.21833 37.4187 7.67233 37.876 7.215C38.3333 6.75767 38.8793 6.403 39.514 6.151C40.1533 5.89433 40.858 5.766 41.628 5.766C42.3793 5.766 43.035 5.88733 43.595 6.13C44.1597 6.368 44.6427 6.68533 45.044 7.082L44.414 7.957C44.3767 8.013 44.3277 8.062 44.267 8.104C44.211 8.146 44.1317 8.167 44.029 8.167C43.9217 8.167 43.812 8.125 43.7 8.041C43.588 7.957 43.4457 7.866 43.273 7.768C43.1003 7.67 42.881 7.579 42.615 7.495C42.3537 7.411 42.02 7.369 41.614 7.369C41.138 7.369 40.6993 7.453 40.298 7.621C39.9013 7.78433 39.5583 8.02 39.269 8.328C38.9843 8.636 38.7603 9.01167 38.597 9.455C38.4383 9.89367 38.359 10.3883 38.359 10.939C38.359 11.5083 38.4383 12.0147 38.597 12.458C38.7603 12.9013 38.9797 13.2747 39.255 13.578C39.5303 13.8813 39.8547 14.1147 40.228 14.278C40.6013 14.4367 41.0027 14.516 41.432 14.516C41.6887 14.516 41.9197 14.502 42.125 14.474C42.335 14.446 42.5263 14.4017 42.699 14.341C42.8763 14.2803 43.042 14.2033 43.196 14.11C43.3547 14.012 43.511 13.893 43.665 13.753C43.7117 13.711 43.7607 13.6783 43.812 13.655C43.8633 13.627 43.9193 13.613 43.98 13.613ZM51.9446 16H51.1676C51.0042 16 50.8759 15.9767 50.7826 15.93C50.6892 15.8787 50.6192 15.7783 50.5726 15.629L50.4186 15.118C50.2366 15.2813 50.0569 15.426 49.8796 15.552C49.7069 15.6733 49.5272 15.776 49.3406 15.86C49.1539 15.944 48.9556 16.007 48.7456 16.049C48.5356 16.091 48.3022 16.112 48.0456 16.112C47.7422 16.112 47.4622 16.0723 47.2056 15.993C46.9489 15.909 46.7272 15.7853 46.5406 15.622C46.3586 15.4587 46.2162 15.2557 46.1136 15.013C46.0109 14.7703 45.9596 14.488 45.9596 14.166C45.9596 13.8953 46.0296 13.6293 46.1696 13.368C46.3142 13.102 46.5522 12.864 46.8836 12.654C47.2149 12.4393 47.6559 12.262 48.2066 12.122C48.7572 11.982 49.4409 11.9027 50.2576 11.884V11.464C50.2576 10.9833 50.1549 10.6287 49.9496 10.4C49.7489 10.1667 49.4549 10.05 49.0676 10.05C48.7876 10.05 48.5542 10.0827 48.3676 10.148C48.1809 10.2133 48.0176 10.288 47.8776 10.372C47.7422 10.4513 47.6162 10.5237 47.4996 10.589C47.3829 10.6543 47.2546 10.687 47.1146 10.687C46.9979 10.687 46.8976 10.6567 46.8136 10.596C46.7296 10.5353 46.6619 10.4607 46.6106 10.372L46.2956 9.819C47.1216 9.063 48.1179 8.685 49.2846 8.685C49.7046 8.685 50.0779 8.755 50.4046 8.895C50.7359 9.03033 51.0159 9.22167 51.2446 9.469C51.4732 9.71167 51.6459 10.0033 51.7626 10.344C51.8839 10.6847 51.9446 11.058 51.9446 11.464V16ZM48.5846 14.922C48.7619 14.922 48.9252 14.9057 49.0746 14.873C49.2239 14.8403 49.3639 14.7913 49.4946 14.726C49.6299 14.6607 49.7582 14.5813 49.8796 14.488C50.0056 14.39 50.1316 14.2757 50.2576 14.145V12.934C49.7536 12.9573 49.3312 13.0017 48.9906 13.067C48.6546 13.1277 48.3839 13.207 48.1786 13.305C47.9732 13.403 47.8262 13.5173 47.7376 13.648C47.6536 13.7787 47.6116 13.921 47.6116 14.075C47.6116 14.3783 47.7002 14.5953 47.8776 14.726C48.0596 14.8567 48.2952 14.922 48.5846 14.922ZM55.4857 5.598V16H53.7567V5.598H55.4857ZM59.2865 5.598V16H57.5575V5.598H59.2865ZM65.5353 8.818V13.382C65.5353 13.8207 65.6356 14.1613 65.8363 14.404C66.0416 14.642 66.3473 14.761 66.7533 14.761C67.052 14.761 67.332 14.6957 67.5933 14.565C67.8546 14.4297 68.102 14.2453 68.3353 14.012V8.818H70.0643V16H69.0073C68.7833 16 68.6363 15.895 68.5663 15.685L68.4473 15.111C68.298 15.2603 68.144 15.398 67.9853 15.524C67.8266 15.6453 67.6563 15.7503 67.4743 15.839C67.297 15.923 67.1033 15.9883 66.8933 16.035C66.688 16.0863 66.4663 16.112 66.2283 16.112C65.8363 16.112 65.4886 16.0467 65.1853 15.916C64.8866 15.7807 64.6346 15.5917 64.4293 15.349C64.224 15.1063 64.0676 14.8193 63.9603 14.488C63.8576 14.152 63.8063 13.7833 63.8063 13.382V8.818H65.5353ZM76.1733 10.218C76.1267 10.2927 76.0777 10.3463 76.0263 10.379C75.975 10.407 75.9097 10.421 75.8303 10.421C75.7463 10.421 75.6553 10.3977 75.5573 10.351C75.464 10.3043 75.3543 10.253 75.2283 10.197C75.1023 10.1363 74.9577 10.0827 74.7943 10.036C74.6357 9.98933 74.4467 9.966 74.2273 9.966C73.8867 9.966 73.6183 10.0383 73.4223 10.183C73.2263 10.3277 73.1283 10.5167 73.1283 10.75C73.1283 10.904 73.1773 11.0347 73.2753 11.142C73.378 11.2447 73.511 11.3357 73.6743 11.415C73.8423 11.4943 74.0313 11.5667 74.2413 11.632C74.4513 11.6927 74.666 11.7603 74.8853 11.835C75.1047 11.9097 75.3193 11.996 75.5293 12.094C75.7393 12.1873 75.926 12.3087 76.0893 12.458C76.2573 12.6027 76.3903 12.7777 76.4883 12.983C76.591 13.1883 76.6423 13.4357 76.6423 13.725C76.6423 14.0703 76.5793 14.39 76.4533 14.684C76.3273 14.9733 76.143 15.2253 75.9003 15.44C75.6577 15.65 75.3567 15.8157 74.9973 15.937C74.6427 16.0537 74.2343 16.112 73.7723 16.112C73.525 16.112 73.2823 16.0887 73.0443 16.042C72.811 16 72.5847 15.9393 72.3653 15.86C72.1507 15.7807 71.95 15.6873 71.7633 15.58C71.5813 15.4727 71.4203 15.356 71.2803 15.23L71.6793 14.572C71.7307 14.4927 71.7913 14.432 71.8613 14.39C71.9313 14.348 72.02 14.327 72.1273 14.327C72.2347 14.327 72.335 14.3573 72.4283 14.418C72.5263 14.4787 72.6383 14.544 72.7643 14.614C72.8903 14.684 73.0373 14.7493 73.2053 14.81C73.378 14.8707 73.595 14.901 73.8563 14.901C74.0617 14.901 74.2367 14.8777 74.3813 14.831C74.5307 14.7797 74.652 14.7143 74.7453 14.635C74.8433 14.5557 74.9133 14.4647 74.9553 14.362C75.002 14.2547 75.0253 14.145 75.0253 14.033C75.0253 13.865 74.974 13.7273 74.8713 13.62C74.7733 13.5127 74.6403 13.4193 74.4723 13.34C74.309 13.2607 74.12 13.1907 73.9053 13.13C73.6953 13.0647 73.4783 12.9947 73.2543 12.92C73.035 12.8453 72.818 12.759 72.6033 12.661C72.3933 12.5583 72.2043 12.43 72.0363 12.276C71.873 12.122 71.74 11.933 71.6373 11.709C71.5393 11.485 71.4903 11.2143 71.4903 10.897C71.4903 10.603 71.5487 10.323 71.6653 10.057C71.782 9.791 71.9523 9.56 72.1763 9.364C72.405 9.16333 72.6873 9.00467 73.0233 8.888C73.364 8.76667 73.756 8.706 74.1993 8.706C74.694 8.706 75.1443 8.78767 75.5503 8.951C75.9563 9.11433 76.2947 9.329 76.5653 9.595L76.1733 10.218ZM77.8887 15.048C77.8887 14.9033 77.9143 14.7657 77.9657 14.635C78.0217 14.5043 78.0963 14.3923 78.1897 14.299C78.2877 14.2057 78.402 14.131 78.5327 14.075C78.6633 14.019 78.8033 13.991 78.9527 13.991C79.0973 13.991 79.235 14.019 79.3657 14.075C79.4963 14.131 79.6083 14.2057 79.7017 14.299C79.795 14.3923 79.8697 14.5043 79.9257 14.635C79.9817 14.7657 80.0097 14.9033 80.0097 15.048C80.0097 15.1973 79.9817 15.3373 79.9257 15.468C79.8697 15.594 79.795 15.7037 79.7017 15.797C79.6083 15.8903 79.4963 15.9627 79.3657 16.014C79.235 16.07 79.0973 16.098 78.9527 16.098C78.8033 16.098 78.6633 16.07 78.5327 16.014C78.402 15.9627 78.2877 15.8903 78.1897 15.797C78.0963 15.7037 78.0217 15.594 77.9657 15.468C77.9143 15.3373 77.8887 15.1973 77.8887 15.048ZM77.8887 10.057C77.8887 9.91233 77.9143 9.77467 77.9657 9.644C78.0217 9.51333 78.0963 9.40133 78.1897 9.308C78.2877 9.21467 78.402 9.14 78.5327 9.084C78.6633 9.028 78.8033 9 78.9527 9C79.0973 9 79.235 9.028 79.3657 9.084C79.4963 9.14 79.6083 9.21467 79.7017 9.308C79.795 9.40133 79.8697 9.51333 79.9257 9.644C79.9817 9.77467 80.0097 9.91233 80.0097 10.057C80.0097 10.2063 79.9817 10.3463 79.9257 10.477C79.8697 10.603 79.795 10.7127 79.7017 10.806C79.6083 10.8993 79.4963 10.974 79.3657 11.03C79.235 11.0813 79.0973 11.107 78.9527 11.107C78.8033 11.107 78.6633 11.0813 78.5327 11.03C78.402 10.974 78.2877 10.8993 78.1897 10.806C78.0963 10.7127 78.0217 10.603 77.9657 10.477C77.9143 10.3463 77.8887 10.2063 77.8887 10.057Z" fill="#787A80"/>
<path d="M38.601 35.339C38.601 36.623 38.766 37.871 39.096 39.083C39.426 40.289 39.903 41.441 40.527 42.539C40.563 42.605 40.587 42.662 40.599 42.71C40.611 42.758 40.617 42.806 40.617 42.854C40.617 42.938 40.596 43.007 40.554 43.061C40.512 43.115 40.458 43.163 40.392 43.205L39.681 43.637C39.231 42.947 38.847 42.263 38.529 41.585C38.217 40.907 37.962 40.226 37.764 39.542C37.572 38.858 37.431 38.171 37.341 37.481C37.251 36.785 37.206 36.071 37.206 35.339C37.206 34.613 37.251 33.902 37.341 33.206C37.431 32.51 37.572 31.823 37.764 31.145C37.962 30.461 38.217 29.78 38.529 29.102C38.847 28.424 39.231 27.737 39.681 27.041L40.392 27.482C40.458 27.524 40.512 27.572 40.554 27.626C40.596 27.68 40.617 27.749 40.617 27.833C40.617 27.923 40.587 28.025 40.527 28.139C39.897 29.231 39.417 30.383 39.087 31.595C38.763 32.807 38.601 34.055 38.601 35.339ZM49.5235 36.347H51.4765V37.265C51.4765 37.361 51.4465 37.442 51.3865 37.508C51.3325 37.574 51.2455 37.607 51.1255 37.607H49.5235V41H48.1105V37.607H42.3955C42.2755 37.607 42.1705 37.574 42.0805 37.508C41.9965 37.436 41.9425 37.349 41.9185 37.247L41.7565 36.428L48.0295 28.103H49.5235V36.347ZM48.1105 31.028C48.1105 30.872 48.1135 30.704 48.1195 30.524C48.1315 30.344 48.1525 30.158 48.1825 29.966L43.4935 36.347H48.1105V31.028ZM61.7379 34.556C61.7379 35.684 61.6149 36.662 61.3689 37.49C61.1289 38.312 60.7989 38.993 60.3789 39.533C59.9589 40.073 59.4609 40.475 58.8849 40.739C58.3149 41.003 57.7029 41.135 57.0489 41.135C56.3889 41.135 55.7739 41.003 55.2039 40.739C54.6399 40.475 54.1479 40.073 53.7279 39.533C53.3079 38.993 52.9779 38.312 52.7379 37.49C52.4979 36.662 52.3779 35.684 52.3779 34.556C52.3779 33.428 52.4979 32.45 52.7379 31.622C52.9779 30.794 53.3079 30.11 53.7279 29.57C54.1479 29.024 54.6399 28.619 55.2039 28.355C55.7739 28.091 56.3889 27.959 57.0489 27.959C57.7029 27.959 58.3149 28.091 58.8849 28.355C59.4609 28.619 59.9589 29.024 60.3789 29.57C60.7989 30.11 61.1289 30.794 61.3689 31.622C61.6149 32.45 61.7379 33.428 61.7379 34.556ZM60.0729 34.556C60.0729 33.572 59.9889 32.747 59.8209 32.081C59.6589 31.409 59.4369 30.869 59.1549 30.461C58.8789 30.053 58.5579 29.762 58.1919 29.588C57.8259 29.408 57.4449 29.318 57.0489 29.318C56.6529 29.318 56.2719 29.408 55.9059 29.588C55.5399 29.762 55.2189 30.053 54.9429 30.461C54.6669 30.869 54.4449 31.409 54.2769 32.081C54.1149 32.747 54.0339 33.572 54.0339 34.556C54.0339 35.54 54.1149 36.365 54.2769 37.031C54.4449 37.697 54.6669 38.234 54.9429 38.642C55.2189 39.05 55.5399 39.344 55.9059 39.524C56.2719 39.698 56.6529 39.785 57.0489 39.785C57.4449 39.785 57.8259 39.698 58.1919 39.524C58.5579 39.344 58.8789 39.05 59.1549 38.642C59.4369 38.234 59.6589 37.697 59.8209 37.031C59.9889 36.365 60.0729 35.54 60.0729 34.556ZM71.0813 28.805C71.0813 29.033 71.0093 29.222 70.8653 29.372C70.7213 29.516 70.4783 29.588 70.1363 29.588H66.0863L65.4923 32.972C66.1643 32.828 66.7853 32.756 67.3553 32.756C68.0273 32.756 68.6183 32.855 69.1283 33.053C69.6443 33.251 70.0763 33.524 70.4243 33.872C70.7723 34.22 71.0333 34.631 71.2073 35.105C71.3873 35.579 71.4773 36.095 71.4773 36.653C71.4773 37.337 71.3573 37.955 71.1173 38.507C70.8773 39.059 70.5473 39.533 70.1273 39.929C69.7133 40.319 69.2243 40.619 68.6603 40.829C68.0963 41.039 67.4873 41.144 66.8333 41.144C66.4553 41.144 66.0923 41.105 65.7443 41.027C65.3963 40.955 65.0723 40.856 64.7723 40.73C64.4723 40.604 64.1933 40.46 63.9353 40.298C63.6773 40.136 63.4493 39.965 63.2513 39.785L63.7373 39.101C63.8453 38.945 63.9893 38.867 64.1693 38.867C64.2833 38.867 64.4153 38.915 64.5653 39.011C64.7213 39.101 64.9073 39.203 65.1233 39.317C65.3393 39.431 65.5913 39.536 65.8793 39.632C66.1733 39.722 66.5213 39.767 66.9233 39.767C67.3733 39.767 67.7783 39.695 68.1383 39.551C68.4983 39.407 68.8043 39.203 69.0563 38.939C69.3143 38.669 69.5123 38.348 69.6503 37.976C69.7883 37.604 69.8573 37.187 69.8573 36.725C69.8573 36.323 69.7973 35.96 69.6773 35.636C69.5633 35.312 69.3863 35.036 69.1463 34.808C68.9123 34.58 68.6183 34.403 68.2643 34.277C67.9103 34.151 67.4963 34.088 67.0223 34.088C66.6983 34.088 66.3623 34.115 66.0143 34.169C65.6663 34.223 65.3063 34.31 64.9343 34.43L63.9263 34.133L64.9703 28.103H71.0813V28.805ZM75.4027 35.339C75.4027 34.055 75.2377 32.807 74.9077 31.595C74.5837 30.383 74.1067 29.231 73.4767 28.139C73.4167 28.025 73.3867 27.923 73.3867 27.833C73.3867 27.749 73.4077 27.68 73.4497 27.626C73.4917 27.572 73.5457 27.524 73.6117 27.482L74.3227 27.041C74.7727 27.737 75.1537 28.424 75.4657 29.102C75.7837 29.78 76.0387 30.461 76.2307 31.145C76.4287 31.823 76.5727 32.51 76.6627 33.206C76.7527 33.902 76.7977 34.613 76.7977 35.339C76.7977 36.071 76.7527 36.785 76.6627 37.481C76.5727 38.171 76.4287 38.858 76.2307 39.542C76.0387 40.226 75.7837 40.907 75.4657 41.585C75.1537 42.263 74.7727 42.947 74.3227 43.637L73.6117 43.205C73.5457 43.163 73.4917 43.115 73.4497 43.061C73.4077 43.007 73.3867 42.938 73.3867 42.854C73.3867 42.806 73.3927 42.758 73.4047 42.71C73.4167 42.662 73.4407 42.605 73.4767 42.539C74.1007 41.441 74.5777 40.289 74.9077 39.083C75.2377 37.871 75.4027 36.623 75.4027 35.339ZM90.3997 28.805C90.3997 29.033 90.3277 29.222 90.1837 29.372C90.0397 29.516 89.7967 29.588 89.4547 29.588H85.4047L84.8107 32.972C85.4827 32.828 86.1037 32.756 86.6737 32.756C87.3457 32.756 87.9367 32.855 88.4467 33.053C88.9627 33.251 89.3947 33.524 89.7427 33.872C90.0907 34.22 90.3517 34.631 90.5257 35.105C90.7057 35.579 90.7957 36.095 90.7957 36.653C90.7957 37.337 90.6757 37.955 90.4357 38.507C90.1957 39.059 89.8657 39.533 89.4457 39.929C89.0317 40.319 88.5427 40.619 87.9787 40.829C87.4147 41.039 86.8057 41.144 86.1517 41.144C85.7737 41.144 85.4107 41.105 85.0627 41.027C84.7147 40.955 84.3907 40.856 84.0907 40.73C83.7907 40.604 83.5117 40.46 83.2537 40.298C82.9957 40.136 82.7677 39.965 82.5697 39.785L83.0557 39.101C83.1637 38.945 83.3077 38.867 83.4877 38.867C83.6017 38.867 83.7337 38.915 83.8837 39.011C84.0397 39.101 84.2257 39.203 84.4417 39.317C84.6577 39.431 84.9097 39.536 85.1977 39.632C85.4917 39.722 85.8397 39.767 86.2417 39.767C86.6917 39.767 87.0967 39.695 87.4567 39.551C87.8167 39.407 88.1227 39.203 88.3747 38.939C88.6327 38.669 88.8307 38.348 88.9687 37.976C89.1067 37.604 89.1757 37.187 89.1757 36.725C89.1757 36.323 89.1157 35.96 88.9957 35.636C88.8817 35.312 88.7047 35.036 88.4647 34.808C88.2307 34.58 87.9367 34.403 87.5827 34.277C87.2287 34.151 86.8147 34.088 86.3407 34.088C86.0167 34.088 85.6807 34.115 85.3327 34.169C84.9847 34.223 84.6247 34.31 84.2527 34.43L83.2447 34.133L84.2887 28.103H90.3997V28.805ZM100.841 28.805C100.841 29.033 100.769 29.222 100.625 29.372C100.481 29.516 100.238 29.588 99.8961 29.588H95.8461L95.2521 32.972C95.9241 32.828 96.5451 32.756 97.1151 32.756C97.7871 32.756 98.3781 32.855 98.8881 33.053C99.4041 33.251 99.8361 33.524 100.184 33.872C100.532 34.22 100.793 34.631 100.967 35.105C101.147 35.579 101.237 36.095 101.237 36.653C101.237 37.337 101.117 37.955 100.877 38.507C100.637 39.059 100.307 39.533 99.8871 39.929C99.4731 40.319 98.9841 40.619 98.4201 40.829C97.8561 41.039 97.2471 41.144 96.5931 41.144C96.2151 41.144 95.8521 41.105 95.5041 41.027C95.1561 40.955 94.8321 40.856 94.5321 40.73C94.2321 40.604 93.9531 40.46 93.6951 40.298C93.4371 40.136 93.2091 39.965 93.0111 39.785L93.4971 39.101C93.6051 38.945 93.7491 38.867 93.9291 38.867C94.0431 38.867 94.1751 38.915 94.3251 39.011C94.4811 39.101 94.6671 39.203 94.8831 39.317C95.0991 39.431 95.3511 39.536 95.6391 39.632C95.9331 39.722 96.2811 39.767 96.6831 39.767C97.1331 39.767 97.5381 39.695 97.8981 39.551C98.2581 39.407 98.5641 39.203 98.8161 38.939C99.0741 38.669 99.2721 38.348 99.4101 37.976C99.5481 37.604 99.6171 37.187 99.6171 36.725C99.6171 36.323 99.5571 35.96 99.4371 35.636C99.3231 35.312 99.1461 35.036 98.9061 34.808C98.6721 34.58 98.3781 34.403 98.0241 34.277C97.6701 34.151 97.2561 34.088 96.7821 34.088C96.4581 34.088 96.1221 34.115 95.7741 34.169C95.4261 34.223 95.0661 34.31 94.6941 34.43L93.6861 34.133L94.7301 28.103H100.841V28.805ZM111.282 28.805C111.282 29.033 111.21 29.222 111.066 29.372C110.922 29.516 110.679 29.588 110.337 29.588H106.287L105.693 32.972C106.365 32.828 106.986 32.756 107.556 32.756C108.228 32.756 108.819 32.855 109.329 33.053C109.845 33.251 110.277 33.524 110.625 33.872C110.973 34.22 111.234 34.631 111.408 35.105C111.588 35.579 111.678 36.095 111.678 36.653C111.678 37.337 111.558 37.955 111.318 38.507C111.078 39.059 110.748 39.533 110.328 39.929C109.914 40.319 109.425 40.619 108.861 40.829C108.297 41.039 107.688 41.144 107.034 41.144C106.656 41.144 106.293 41.105 105.945 41.027C105.597 40.955 105.273 40.856 104.973 40.73C104.673 40.604 104.394 40.46 104.136 40.298C103.878 40.136 103.65 39.965 103.452 39.785L103.938 39.101C104.046 38.945 104.19 38.867 104.37 38.867C104.484 38.867 104.616 38.915 104.766 39.011C104.922 39.101 105.108 39.203 105.324 39.317C105.54 39.431 105.792 39.536 106.08 39.632C106.374 39.722 106.722 39.767 107.124 39.767C107.574 39.767 107.979 39.695 108.339 39.551C108.699 39.407 109.005 39.203 109.257 38.939C109.515 38.669 109.713 38.348 109.851 37.976C109.989 37.604 110.058 37.187 110.058 36.725C110.058 36.323 109.998 35.96 109.878 35.636C109.764 35.312 109.587 35.036 109.347 34.808C109.113 34.58 108.819 34.403 108.465 34.277C108.111 34.151 107.697 34.088 107.223 34.088C106.899 34.088 106.563 34.115 106.215 34.169C105.867 34.223 105.507 34.31 105.135 34.43L104.127 34.133L105.171 28.103H111.282V28.805ZM113.822 34.925H118.268V36.284H113.822V34.925ZM129.062 34.556C129.062 35.684 128.939 36.662 128.693 37.49C128.453 38.312 128.123 38.993 127.703 39.533C127.283 40.073 126.785 40.475 126.209 40.739C125.639 41.003 125.027 41.135 124.373 41.135C123.713 41.135 123.098 41.003 122.528 40.739C121.964 40.475 121.472 40.073 121.052 39.533C120.632 38.993 120.302 38.312 120.062 37.49C119.822 36.662 119.702 35.684 119.702 34.556C119.702 33.428 119.822 32.45 120.062 31.622C120.302 30.794 120.632 30.11 121.052 29.57C121.472 29.024 121.964 28.619 122.528 28.355C123.098 28.091 123.713 27.959 124.373 27.959C125.027 27.959 125.639 28.091 126.209 28.355C126.785 28.619 127.283 29.024 127.703 29.57C128.123 30.11 128.453 30.794 128.693 31.622C128.939 32.45 129.062 33.428 129.062 34.556ZM127.397 34.556C127.397 33.572 127.313 32.747 127.145 32.081C126.983 31.409 126.761 30.869 126.479 30.461C126.203 30.053 125.882 29.762 125.516 29.588C125.15 29.408 124.769 29.318 124.373 29.318C123.977 29.318 123.596 29.408 123.23 29.588C122.864 29.762 122.543 30.053 122.267 30.461C121.991 30.869 121.769 31.409 121.601 32.081C121.439 32.747 121.358 33.572 121.358 34.556C121.358 35.54 121.439 36.365 121.601 37.031C121.769 37.697 121.991 38.234 122.267 38.642C122.543 39.05 122.864 39.344 123.23 39.524C123.596 39.698 123.977 39.785 124.373 39.785C124.769 39.785 125.15 39.698 125.516 39.524C125.882 39.344 126.203 39.05 126.479 38.642C126.761 38.234 126.983 37.697 127.145 37.031C127.313 36.365 127.397 35.54 127.397 34.556ZM132.187 39.776H134.959V30.983C134.959 30.719 134.968 30.452 134.986 30.182L132.682 32.153C132.622 32.201 132.562 32.237 132.502 32.261C132.442 32.279 132.385 32.288 132.331 32.288C132.241 32.288 132.16 32.27 132.088 32.234C132.016 32.192 131.962 32.144 131.926 32.09L131.422 31.397L135.256 28.076H136.561V39.776H139.099V41H132.187V39.776ZM145.454 27.959C146 27.959 146.51 28.04 146.984 28.202C147.458 28.364 147.866 28.601 148.208 28.913C148.556 29.219 148.829 29.594 149.027 30.038C149.225 30.482 149.324 30.986 149.324 31.55C149.324 32.03 149.252 32.474 149.108 32.882C148.964 33.29 148.769 33.683 148.523 34.061C148.277 34.433 147.992 34.796 147.668 35.15C147.35 35.498 147.011 35.855 146.651 36.221L143.258 39.695C143.498 39.629 143.741 39.578 143.987 39.542C144.233 39.5 144.47 39.479 144.698 39.479H149.018C149.192 39.479 149.33 39.53 149.432 39.632C149.534 39.734 149.585 39.866 149.585 40.028V41H140.981V40.451C140.981 40.337 141.002 40.22 141.044 40.1C141.092 39.98 141.167 39.869 141.269 39.767L145.4 35.618C145.742 35.27 146.054 34.937 146.336 34.619C146.618 34.295 146.858 33.971 147.056 33.647C147.26 33.323 147.416 32.996 147.524 32.666C147.632 32.33 147.686 31.973 147.686 31.595C147.686 31.217 147.626 30.887 147.506 30.605C147.386 30.317 147.221 30.08 147.011 29.894C146.801 29.708 146.555 29.57 146.273 29.48C145.991 29.384 145.688 29.336 145.364 29.336C145.04 29.336 144.74 29.384 144.464 29.48C144.188 29.576 143.942 29.711 143.726 29.885C143.516 30.053 143.336 30.254 143.186 30.488C143.042 30.722 142.94 30.98 142.88 31.262C142.832 31.436 142.76 31.562 142.664 31.64C142.568 31.718 142.442 31.757 142.286 31.757C142.256 31.757 142.223 31.757 142.187 31.757C142.157 31.751 142.121 31.745 142.079 31.739L141.242 31.595C141.326 31.007 141.488 30.488 141.728 30.038C141.968 29.582 142.271 29.201 142.637 28.895C143.009 28.589 143.432 28.358 143.906 28.202C144.386 28.04 144.902 27.959 145.454 27.959ZM155.697 41.144C155.055 41.144 154.467 41.06 153.933 40.892C153.399 40.718 152.94 40.472 152.556 40.154C152.172 39.836 151.875 39.452 151.665 39.002C151.455 38.546 151.35 38.036 151.35 37.472C151.35 36.644 151.566 35.963 151.998 35.429C152.43 34.889 153.048 34.505 153.852 34.277C153.174 34.025 152.661 33.65 152.313 33.152C151.971 32.648 151.8 32.048 151.8 31.352C151.8 30.878 151.893 30.434 152.079 30.02C152.265 29.606 152.529 29.246 152.871 28.94C153.213 28.634 153.621 28.394 154.095 28.22C154.575 28.046 155.109 27.959 155.697 27.959C156.279 27.959 156.81 28.046 157.29 28.22C157.77 28.394 158.181 28.634 158.523 28.94C158.865 29.246 159.129 29.606 159.315 30.02C159.501 30.434 159.594 30.878 159.594 31.352C159.594 32.048 159.42 32.648 159.072 33.152C158.724 33.65 158.214 34.025 157.542 34.277C158.346 34.505 158.964 34.889 159.396 35.429C159.828 35.963 160.044 36.644 160.044 37.472C160.044 38.036 159.936 38.546 159.72 39.002C159.51 39.452 159.213 39.836 158.829 40.154C158.451 40.472 157.995 40.718 157.461 40.892C156.927 41.06 156.339 41.144 155.697 41.144ZM155.697 39.866C156.117 39.866 156.492 39.809 156.822 39.695C157.158 39.575 157.44 39.41 157.668 39.2C157.902 38.984 158.079 38.729 158.199 38.435C158.325 38.135 158.388 37.805 158.388 37.445C158.388 37.001 158.313 36.623 158.163 36.311C158.019 35.993 157.821 35.735 157.569 35.537C157.323 35.339 157.038 35.195 156.714 35.105C156.39 35.009 156.051 34.961 155.697 34.961C155.343 34.961 155.004 35.009 154.68 35.105C154.356 35.195 154.068 35.339 153.816 35.537C153.57 35.735 153.372 35.993 153.222 36.311C153.078 36.623 153.006 37.001 153.006 37.445C153.006 37.805 153.066 38.135 153.186 38.435C153.312 38.729 153.489 38.984 153.717 39.2C153.951 39.41 154.233 39.575 154.563 39.695C154.899 39.809 155.277 39.866 155.697 39.866ZM155.697 33.674C156.117 33.674 156.474 33.611 156.768 33.485C157.068 33.353 157.311 33.182 157.497 32.972C157.683 32.756 157.818 32.51 157.902 32.234C157.986 31.958 158.028 31.673 158.028 31.379C158.028 31.079 157.977 30.797 157.875 30.533C157.779 30.269 157.632 30.038 157.434 29.84C157.242 29.642 156.999 29.486 156.705 29.372C156.417 29.258 156.081 29.201 155.697 29.201C155.313 29.201 154.974 29.258 154.68 29.372C154.392 29.486 154.149 29.642 153.951 29.84C153.759 30.038 153.612 30.269 153.51 30.533C153.414 30.797 153.366 31.079 153.366 31.379C153.366 31.673 153.408 31.958 153.492 32.234C153.576 32.51 153.711 32.756 153.897 32.972C154.083 33.182 154.323 33.353 154.617 33.485C154.917 33.611 155.277 33.674 155.697 33.674Z" fill="#1E212C"/>
</svg>
