<svg width="135" height="26" viewBox="0 0 135 26" fill="none" xmlns="http://www.w3.org/2000/svg">
<g clip-path="url(#clip0_2502_235)">
<path d="M9.232 16.272C9.34933 16.272 9.45333 16.3173 9.544 16.408L10.392 17.328C9.92267 17.9093 9.344 18.3547 8.656 18.664C7.97333 18.9733 7.152 19.128 6.192 19.128C5.33333 19.128 4.56 18.9813 3.872 18.688C3.18933 18.3947 2.60533 17.9867 2.12 17.464C1.63467 16.9413 1.26133 16.3173 1 15.592C0.744 14.8667 0.616 14.0747 0.616 13.216C0.616 12.3467 0.754667 11.552 1.032 10.832C1.30933 10.1067 1.69867 9.48267 2.2 8.96C2.70667 8.43733 3.30933 8.032 4.008 7.744C4.70667 7.45067 5.48 7.304 6.328 7.304C7.17067 7.304 7.91733 7.44267 8.568 7.72C9.224 7.99733 9.78133 8.36 10.24 8.808L9.52 9.808C9.47733 9.872 9.42133 9.928 9.352 9.976C9.288 10.024 9.19733 10.048 9.08 10.048C9 10.048 8.91733 10.0267 8.832 9.984C8.74667 9.936 8.65333 9.88 8.552 9.816C8.45067 9.74667 8.33333 9.672 8.2 9.592C8.06667 9.512 7.912 9.44 7.736 9.376C7.56 9.30667 7.35467 9.25067 7.12 9.208C6.89067 9.16 6.624 9.136 6.32 9.136C5.80267 9.136 5.328 9.22933 4.896 9.416C4.46933 9.59733 4.10133 9.864 3.792 10.216C3.48267 10.5627 3.24267 10.9893 3.072 11.496C2.90133 11.9973 2.816 12.5707 2.816 13.216C2.816 13.8667 2.90667 14.4453 3.088 14.952C3.27467 15.4587 3.52533 15.8853 3.84 16.232C4.15467 16.5787 4.52533 16.8453 4.952 17.032C5.37867 17.2133 5.83733 17.304 6.328 17.304C6.62133 17.304 6.88533 17.288 7.12 17.256C7.36 17.224 7.57867 17.1733 7.776 17.104C7.97867 17.0347 8.168 16.9467 8.344 16.84C8.52533 16.728 8.704 16.592 8.88 16.432C8.93333 16.384 8.98933 16.3467 9.048 16.32C9.10667 16.288 9.168 16.272 9.232 16.272ZM13.5301 11.672C13.8501 11.3733 14.2021 11.1307 14.5861 10.944C14.9701 10.7573 15.4208 10.664 15.9381 10.664C16.3861 10.664 16.7835 10.7413 17.1301 10.896C17.4768 11.0453 17.7648 11.2587 17.9941 11.536C18.2288 11.808 18.4048 12.136 18.5221 12.52C18.6448 12.8987 18.7061 13.3173 18.7061 13.776V19H16.7301V13.776C16.7301 13.2747 16.6155 12.888 16.3861 12.616C16.1568 12.3387 15.8075 12.2 15.3381 12.2C14.9968 12.2 14.6768 12.2773 14.3781 12.432C14.0795 12.5867 13.7968 12.7973 13.5301 13.064V19H11.5541V7.112H13.5301V11.672ZM25.8734 13.952C25.8734 13.696 25.836 13.456 25.7614 13.232C25.692 13.0027 25.5854 12.8027 25.4414 12.632C25.2974 12.4613 25.1134 12.328 24.8894 12.232C24.6707 12.1307 24.4147 12.08 24.1214 12.08C23.5507 12.08 23.1 12.2427 22.7694 12.568C22.444 12.8933 22.236 13.3547 22.1454 13.952H25.8734ZM22.1054 15.144C22.1374 15.5653 22.212 15.9307 22.3294 16.24C22.4467 16.544 22.6014 16.7973 22.7934 17C22.9854 17.1973 23.212 17.3467 23.4734 17.448C23.74 17.544 24.0334 17.592 24.3534 17.592C24.6734 17.592 24.948 17.5547 25.1774 17.48C25.412 17.4053 25.6147 17.3227 25.7854 17.232C25.9614 17.1413 26.1134 17.0587 26.2414 16.984C26.3747 16.9093 26.5027 16.872 26.6254 16.872C26.7907 16.872 26.9134 16.9333 26.9934 17.056L27.5614 17.776C27.3427 18.032 27.0974 18.248 26.8254 18.424C26.5534 18.5947 26.268 18.7333 25.9694 18.84C25.676 18.9413 25.3747 19.0133 25.0654 19.056C24.7614 19.0987 24.4654 19.12 24.1774 19.12C23.6067 19.12 23.076 19.0267 22.5854 18.84C22.0947 18.648 21.668 18.368 21.3054 18C20.9427 17.6267 20.6574 17.168 20.4494 16.624C20.2414 16.0747 20.1374 15.44 20.1374 14.72C20.1374 14.16 20.228 13.6347 20.4094 13.144C20.5907 12.648 20.8494 12.2187 21.1854 11.856C21.5267 11.488 21.94 11.1973 22.4254 10.984C22.916 10.7707 23.468 10.664 24.0814 10.664C24.5987 10.664 25.076 10.7467 25.5134 10.912C25.9507 11.0773 26.3267 11.32 26.6414 11.64C26.956 11.9547 27.2014 12.344 27.3774 12.808C27.5587 13.2667 27.6494 13.792 27.6494 14.384C27.6494 14.6827 27.6174 14.8853 27.5534 14.992C27.4894 15.0933 27.3667 15.144 27.1854 15.144H22.1054ZM35.0123 12.528C34.9536 12.6027 34.8949 12.6613 34.8363 12.704C34.7829 12.7467 34.7029 12.768 34.5963 12.768C34.4949 12.768 34.3963 12.7387 34.3003 12.68C34.2043 12.616 34.0896 12.5467 33.9563 12.472C33.8229 12.392 33.6629 12.3227 33.4763 12.264C33.2949 12.2 33.0683 12.168 32.7963 12.168C32.4496 12.168 32.1456 12.232 31.8843 12.36C31.6229 12.4827 31.4043 12.6613 31.2283 12.896C31.0576 13.1307 30.9296 13.416 30.8443 13.752C30.7589 14.0827 30.7163 14.4587 30.7163 14.88C30.7163 15.3173 30.7616 15.7067 30.8523 16.048C30.9483 16.3893 31.0843 16.6773 31.2603 16.912C31.4363 17.1413 31.6496 17.3173 31.9003 17.44C32.1509 17.5573 32.4336 17.616 32.7483 17.616C33.0629 17.616 33.3163 17.5787 33.5083 17.504C33.7056 17.424 33.8709 17.3387 34.0043 17.248C34.1376 17.152 34.2523 17.0667 34.3483 16.992C34.4496 16.912 34.5616 16.872 34.6843 16.872C34.8443 16.872 34.9643 16.9333 35.0443 17.056L35.6123 17.776C35.3936 18.032 35.1563 18.248 34.9003 18.424C34.6443 18.5947 34.3776 18.7333 34.1003 18.84C33.8283 18.9413 33.5456 19.0133 33.2523 19.056C32.9643 19.0987 32.6763 19.12 32.3883 19.12C31.8816 19.12 31.4043 19.0267 30.9563 18.84C30.5083 18.648 30.1163 18.3707 29.7803 18.008C29.4443 17.6453 29.1776 17.2027 28.9803 16.68C28.7883 16.152 28.6923 15.552 28.6923 14.88C28.6923 14.2773 28.7776 13.72 28.9483 13.208C29.1243 12.6907 29.3803 12.2453 29.7163 11.872C30.0523 11.4933 30.4683 11.1973 30.9643 10.984C31.4603 10.7707 32.0309 10.664 32.6762 10.664C33.2896 10.664 33.8256 10.7627 34.2843 10.96C34.7483 11.1573 35.1643 11.44 35.5323 11.808L35.0123 12.528ZM38.827 7.112V13.92H39.195C39.3283 13.92 39.4323 13.904 39.507 13.872C39.587 13.8347 39.667 13.7627 39.747 13.656L41.787 11.136C41.8723 11.024 41.9657 10.9387 42.067 10.88C42.1737 10.8213 42.3097 10.792 42.475 10.792H44.283L41.731 13.84C41.5497 14.08 41.3523 14.264 41.139 14.392C41.251 14.472 41.3497 14.5653 41.435 14.672C41.5257 14.7787 41.611 14.8933 41.691 15.016L44.427 19H42.643C42.4883 19 42.355 18.976 42.243 18.928C42.131 18.8747 42.0377 18.7813 41.963 18.648L39.867 15.536C39.7923 15.4133 39.715 15.3333 39.635 15.296C39.555 15.2587 39.435 15.24 39.275 15.24H38.827V19H36.851V7.112H38.827ZM55.1685 12.528C55.1098 12.6027 55.0512 12.6613 54.9925 12.704C54.9392 12.7467 54.8592 12.768 54.7525 12.768C54.6512 12.768 54.5525 12.7387 54.4565 12.68C54.3605 12.616 54.2458 12.5467 54.1125 12.472C53.9792 12.392 53.8192 12.3227 53.6325 12.264C53.4512 12.2 53.2245 12.168 52.9525 12.168C52.6058 12.168 52.3018 12.232 52.0405 12.36C51.7792 12.4827 51.5605 12.6613 51.3845 12.896C51.2138 13.1307 51.0858 13.416 51.0005 13.752C50.9152 14.0827 50.8725 14.4587 50.8725 14.88C50.8725 15.3173 50.9178 15.7067 51.0085 16.048C51.1045 16.3893 51.2405 16.6773 51.4165 16.912C51.5925 17.1413 51.8058 17.3173 52.0565 17.44C52.3072 17.5573 52.5898 17.616 52.9045 17.616C53.2192 17.616 53.4725 17.5787 53.6645 17.504C53.8618 17.424 54.0272 17.3387 54.1605 17.248C54.2938 17.152 54.4085 17.0667 54.5045 16.992C54.6058 16.912 54.7178 16.872 54.8405 16.872C55.0005 16.872 55.1205 16.9333 55.2005 17.056L55.7685 17.776C55.5498 18.032 55.3125 18.248 55.0565 18.424C54.8005 18.5947 54.5338 18.7333 54.2565 18.84C53.9845 18.9413 53.7018 19.0133 53.4085 19.056C53.1205 19.0987 52.8325 19.12 52.5445 19.12C52.0378 19.12 51.5605 19.0267 51.1125 18.84C50.6645 18.648 50.2725 18.3707 49.9365 18.008C49.6005 17.6453 49.3338 17.2027 49.1365 16.68C48.9445 16.152 48.8485 15.552 48.8485 14.88C48.8485 14.2773 48.9338 13.72 49.1045 13.208C49.2805 12.6907 49.5365 12.2453 49.8725 11.872C50.2085 11.4933 50.6245 11.1973 51.1205 10.984C51.6165 10.7707 52.1872 10.664 52.8325 10.664C53.4458 10.664 53.9818 10.7627 54.4405 10.96C54.9045 11.1573 55.3205 11.44 55.6885 11.808L55.1685 12.528ZM60.4986 10.664C61.1066 10.664 61.6586 10.7627 62.1546 10.96C62.656 11.1573 63.0826 11.4373 63.4346 11.8C63.792 12.1627 64.0666 12.6053 64.2586 13.128C64.4506 13.6507 64.5466 14.2347 64.5466 14.88C64.5466 15.5307 64.4506 16.1173 64.2586 16.64C64.0666 17.1627 63.792 17.608 63.4346 17.976C63.0826 18.344 62.656 18.6267 62.1546 18.824C61.6586 19.0213 61.1066 19.12 60.4986 19.12C59.8853 19.12 59.328 19.0213 58.8266 18.824C58.3253 18.6267 57.896 18.344 57.5386 17.976C57.1866 17.608 56.912 17.1627 56.7146 16.64C56.5226 16.1173 56.4266 15.5307 56.4266 14.88C56.4266 14.2347 56.5226 13.6507 56.7146 13.128C56.912 12.6053 57.1866 12.1627 57.5386 11.8C57.896 11.4373 58.3253 11.1573 58.8266 10.96C59.328 10.7627 59.8853 10.664 60.4986 10.664ZM60.4986 17.6C61.1813 17.6 61.6853 17.3707 62.0106 16.912C62.3413 16.4533 62.5066 15.7813 62.5066 14.896C62.5066 14.0107 62.3413 13.336 62.0106 12.872C61.6853 12.408 61.1813 12.176 60.4986 12.176C59.8053 12.176 59.2906 12.4107 58.9546 12.88C58.624 13.344 58.4586 14.016 58.4586 14.896C58.4586 15.776 58.624 16.448 58.9546 16.912C59.2906 17.3707 59.8053 17.6 60.4986 17.6ZM73.1261 10.792V19H71.9181C71.6568 19 71.4915 18.88 71.4221 18.64L71.2861 17.984C70.9501 18.3253 70.5795 18.6027 70.1741 18.816C69.7688 19.024 69.2915 19.128 68.7421 19.128C68.2941 19.128 67.8968 19.0533 67.5501 18.904C67.2088 18.7493 66.9208 18.5333 66.6861 18.256C66.4515 17.9787 66.2728 17.6507 66.1501 17.272C66.0328 16.888 65.9741 16.4667 65.9741 16.008V10.792H67.9501V16.008C67.9501 16.5093 68.0648 16.8987 68.2941 17.176C68.5288 17.448 68.8781 17.584 69.3421 17.584C69.6835 17.584 70.0035 17.5093 70.3021 17.36C70.6008 17.2053 70.8835 16.9947 71.1501 16.728V10.792H73.1261ZM76.9494 12.216C77.2054 11.7253 77.5094 11.3413 77.8614 11.064C78.2134 10.7813 78.6294 10.64 79.1094 10.64C79.488 10.64 79.792 10.7227 80.0214 10.888L79.8934 12.368C79.8667 12.464 79.8267 12.5333 79.7734 12.576C79.7254 12.6133 79.6587 12.632 79.5734 12.632C79.4934 12.632 79.3734 12.6187 79.2134 12.592C79.0587 12.5653 78.9067 12.552 78.7574 12.552C78.5387 12.552 78.344 12.584 78.1734 12.648C78.0027 12.712 77.848 12.8053 77.7094 12.928C77.576 13.0453 77.456 13.1893 77.3494 13.36C77.248 13.5307 77.152 13.7253 77.0614 13.944V19H75.0854V10.792H76.2454C76.448 10.792 76.5894 10.8293 76.6694 10.904C76.7494 10.9733 76.8027 11.1013 76.8294 11.288L76.9494 12.216ZM86.0309 12.392C85.9775 12.4773 85.9215 12.5387 85.8629 12.576C85.8042 12.608 85.7295 12.624 85.6389 12.624C85.5429 12.624 85.4389 12.5973 85.3269 12.544C85.2202 12.4907 85.0949 12.432 84.9509 12.368C84.8069 12.2987 84.6415 12.2373 84.4549 12.184C84.2735 12.1307 84.0575 12.104 83.8069 12.104C83.4175 12.104 83.1109 12.1867 82.8869 12.352C82.6682 12.5173 82.5589 12.7333 82.5589 13C82.5589 13.176 82.6149 13.3253 82.7269 13.448C82.8442 13.5653 82.9962 13.6693 83.1829 13.76C83.3749 13.8507 83.5909 13.9333 83.8309 14.008C84.0709 14.0773 84.3135 14.1547 84.5589 14.24C84.8095 14.3253 85.0549 14.424 85.2949 14.536C85.5349 14.6427 85.7482 14.7813 85.9349 14.952C86.1269 15.1173 86.2789 15.3173 86.3909 15.552C86.5082 15.7867 86.5669 16.0693 86.5669 16.4C86.5669 16.7947 86.4949 17.16 86.3509 17.496C86.2122 17.8267 86.0042 18.1147 85.7269 18.36C85.4495 18.6 85.1055 18.7893 84.6949 18.928C84.2895 19.0613 83.8202 19.128 83.2869 19.128C83.0042 19.128 82.7269 19.1013 82.4549 19.048C82.1882 19 81.9295 18.9307 81.6789 18.84C81.4335 18.7493 81.2042 18.6427 80.9909 18.52C80.7829 18.3973 80.5989 18.264 80.4389 18.12L80.8949 17.368C80.9535 17.2773 81.0229 17.208 81.1029 17.16C81.1829 17.112 81.2842 17.088 81.4069 17.088C81.5295 17.088 81.6442 17.1227 81.7509 17.192C81.8629 17.2613 81.9909 17.336 82.1349 17.416C82.2789 17.496 82.4469 17.5707 82.6389 17.64C82.8362 17.7093 83.0842 17.744 83.3829 17.744C83.6175 17.744 83.8175 17.7173 83.9829 17.664C84.1535 17.6053 84.2922 17.5307 84.3989 17.44C84.5109 17.3493 84.5909 17.2453 84.6389 17.128C84.6922 17.0053 84.7189 16.88 84.7189 16.752C84.7189 16.56 84.6602 16.4027 84.5429 16.28C84.4309 16.1573 84.2789 16.0507 84.0869 15.96C83.9002 15.8693 83.6842 15.7893 83.4389 15.72C83.1989 15.6453 82.9509 15.5653 82.6949 15.48C82.4442 15.3947 82.1962 15.296 81.9509 15.184C81.7109 15.0667 81.4949 14.92 81.3029 14.744C81.1162 14.568 80.9642 14.352 80.8469 14.096C80.7349 13.84 80.6789 13.5307 80.6789 13.168C80.6789 12.832 80.7455 12.512 80.8789 12.208C81.0122 11.904 81.2069 11.64 81.4629 11.416C81.7242 11.1867 82.0469 11.0053 82.4309 10.872C82.8202 10.7333 83.2682 10.664 83.7749 10.664C84.3402 10.664 84.8549 10.7573 85.3189 10.944C85.7829 11.1307 86.1695 11.376 86.4789 11.68L86.0309 12.392ZM93.3421 13.952C93.3421 13.696 93.3048 13.456 93.2301 13.232C93.1608 13.0027 93.0541 12.8027 92.9101 12.632C92.7661 12.4613 92.5821 12.328 92.3581 12.232C92.1395 12.1307 91.8835 12.08 91.5901 12.08C91.0195 12.08 90.5688 12.2427 90.2381 12.568C89.9128 12.8933 89.7048 13.3547 89.6141 13.952H93.3421ZM89.5741 15.144C89.6061 15.5653 89.6808 15.9307 89.7981 16.24C89.9155 16.544 90.0701 16.7973 90.2621 17C90.4541 17.1973 90.6808 17.3467 90.9421 17.448C91.2088 17.544 91.5021 17.592 91.8221 17.592C92.1421 17.592 92.4168 17.5547 92.6461 17.48C92.8808 17.4053 93.0835 17.3227 93.2541 17.232C93.4301 17.1413 93.5821 17.0587 93.7101 16.984C93.8435 16.9093 93.9715 16.872 94.0941 16.872C94.2595 16.872 94.3821 16.9333 94.4621 17.056L95.0301 17.776C94.8115 18.032 94.5661 18.248 94.2941 18.424C94.0221 18.5947 93.7368 18.7333 93.4381 18.84C93.1448 18.9413 92.8435 19.0133 92.5341 19.056C92.2301 19.0987 91.9341 19.12 91.6461 19.12C91.0755 19.12 90.5448 19.0267 90.0541 18.84C89.5635 18.648 89.1368 18.368 88.7741 18C88.4115 17.6267 88.1261 17.168 87.9181 16.624C87.7101 16.0747 87.6061 15.44 87.6061 14.72C87.6061 14.16 87.6968 13.6347 87.8781 13.144C88.0595 12.648 88.3181 12.2187 88.6541 11.856C88.9955 11.488 89.4088 11.1973 89.8941 10.984C90.3848 10.7707 90.9368 10.664 91.5501 10.664C92.0675 10.664 92.5448 10.7467 92.9821 10.912C93.4195 11.0773 93.7955 11.32 94.1101 11.64C94.4248 11.9547 94.6701 12.344 94.8461 12.808C95.0275 13.2667 95.1181 13.792 95.1181 14.384C95.1181 14.6827 95.0861 14.8853 95.0221 14.992C94.9581 15.0933 94.8355 15.144 94.6541 15.144H89.5741ZM101.609 12.392C101.556 12.4773 101.5 12.5387 101.441 12.576C101.382 12.608 101.308 12.624 101.217 12.624C101.121 12.624 101.017 12.5973 100.905 12.544C100.798 12.4907 100.673 12.432 100.529 12.368C100.385 12.2987 100.22 12.2373 100.033 12.184C99.8517 12.1307 99.6357 12.104 99.385 12.104C98.9957 12.104 98.689 12.1867 98.465 12.352C98.2463 12.5173 98.137 12.7333 98.137 13C98.137 13.176 98.193 13.3253 98.305 13.448C98.4223 13.5653 98.5743 13.6693 98.761 13.76C98.953 13.8507 99.169 13.9333 99.409 14.008C99.649 14.0773 99.8917 14.1547 100.137 14.24C100.388 14.3253 100.633 14.424 100.873 14.536C101.113 14.6427 101.326 14.7813 101.513 14.952C101.705 15.1173 101.857 15.3173 101.969 15.552C102.086 15.7867 102.145 16.0693 102.145 16.4C102.145 16.7947 102.073 17.16 101.929 17.496C101.79 17.8267 101.582 18.1147 101.305 18.36C101.028 18.6 100.684 18.7893 100.273 18.928C99.8677 19.0613 99.3983 19.128 98.865 19.128C98.5823 19.128 98.305 19.1013 98.033 19.048C97.7663 19 97.5077 18.9307 97.257 18.84C97.0117 18.7493 96.7823 18.6427 96.569 18.52C96.361 18.3973 96.177 18.264 96.017 18.12L96.473 17.368C96.5317 17.2773 96.601 17.208 96.681 17.16C96.761 17.112 96.8623 17.088 96.985 17.088C97.1077 17.088 97.2223 17.1227 97.329 17.192C97.441 17.2613 97.569 17.336 97.713 17.416C97.857 17.496 98.025 17.5707 98.217 17.64C98.4143 17.7093 98.6623 17.744 98.961 17.744C99.1957 17.744 99.3957 17.7173 99.561 17.664C99.7317 17.6053 99.8703 17.5307 99.977 17.44C100.089 17.3493 100.169 17.2453 100.217 17.128C100.27 17.0053 100.297 16.88 100.297 16.752C100.297 16.56 100.238 16.4027 100.121 16.28C100.009 16.1573 99.857 16.0507 99.665 15.96C99.4783 15.8693 99.2623 15.7893 99.017 15.72C98.777 15.6453 98.529 15.5653 98.273 15.48C98.0223 15.3947 97.7743 15.296 97.529 15.184C97.289 15.0667 97.073 14.92 96.881 14.744C96.6943 14.568 96.5423 14.352 96.425 14.096C96.313 13.84 96.257 13.5307 96.257 13.168C96.257 12.832 96.3237 12.512 96.457 12.208C96.5903 11.904 96.785 11.64 97.041 11.416C97.3023 11.1867 97.625 11.0053 98.009 10.872C98.3983 10.7333 98.8463 10.664 99.353 10.664C99.9183 10.664 100.433 10.7573 100.897 10.944C101.361 11.1307 101.748 11.376 102.057 11.68L101.609 12.392Z" fill="#1E212C"/>
<path fill-rule="evenodd" clip-rule="evenodd" d="M125.793 7.79289C126.183 7.40237 126.817 7.40237 127.207 7.79289L131.707 12.2929C132.098 12.6834 132.098 13.3166 131.707 13.7071L127.207 18.2071C126.817 18.5976 126.183 18.5976 125.793 18.2071C125.402 17.8166 125.402 17.1834 125.793 16.7929L128.586 14H115C114.448 14 114 13.5523 114 13C114 12.4477 114.448 12 115 12H128.586L125.793 9.20711C125.402 8.81658 125.402 8.18342 125.793 7.79289Z" fill="#FF3F3A"/>
</g>
<defs>
<clipPath id="clip0_2502_235">
<rect width="135" height="26" fill="white"/>
</clipPath>
</defs>
</svg>
