<svg width="187" height="48" viewBox="0 0 187 48" fill="none" xmlns="http://www.w3.org/2000/svg">
<g clip-path="url(#clip0_2435_8123)">
<path fill-rule="evenodd" clip-rule="evenodd" d="M21.923 10.5674C21.7806 11.5541 21.443 12.4919 20.9428 13.3544C20.9803 13.5679 20.9995 13.7837 20.9995 14.0005C20.9995 14.7533 20.7814 15.4738 20.3774 16.1284C20.1757 16.4551 20.1238 16.838 20.1038 17.0909C20.0809 17.3808 20.0886 17.6981 20.1093 18.0028C20.1325 18.3447 20.1746 18.7036 20.2227 19.0422C19.8324 18.9284 19.4093 18.8141 19.0056 18.723C18.6698 18.6472 18.3262 18.5826 18.0149 18.5505C17.7434 18.5224 17.3511 18.5007 17.0003 18.6142C16.2332 18.8621 15.3891 19.0005 14.4995 19.0005C13.4416 19.0005 12.47 18.8127 11.6184 18.4865C11.4135 18.4957 11.2072 18.5005 10.9995 18.5005C9.7949 18.5005 8.63552 18.342 7.55078 18.0493C9.12774 19.8731 11.7274 21.0005 14.4995 21.0005C15.5825 21.0005 16.6219 20.8342 17.5797 20.5287C17.5814 20.5287 17.5845 20.5287 17.589 20.5286C17.6136 20.5281 17.6819 20.5267 17.8094 20.5399C18.01 20.5606 18.268 20.6068 18.5655 20.674C19.1578 20.8076 19.8235 21.0048 20.3423 21.1694C21.4424 21.5187 22.5084 20.5586 22.3118 19.4422C22.2271 18.9617 22.1392 18.3753 22.1047 17.8673C22.0874 17.6118 22.0855 17.4022 22.0976 17.2483C22.1026 17.1845 22.1091 17.1446 22.1132 17.1233C22.6758 16.1913 22.9995 15.1302 22.9995 14.0005C22.9995 12.7269 22.604 11.5639 21.923 10.5674Z" fill="#FF3F3A"/>
<path fill-rule="evenodd" clip-rule="evenodd" d="M5.59664 5.69816C4.24868 6.72895 3.49959 8.08209 3.49959 9.5C3.49959 10.207 3.68366 10.888 4.02898 11.5212C4.1605 11.7624 4.19782 12.0112 4.21116 12.1796C4.22571 12.3633 4.21845 12.552 4.20248 12.7285C4.17051 13.0819 4.09423 13.4823 4.00274 13.8766C3.89572 14.3379 3.75859 14.8299 3.61943 15.2918C4.14769 15.0998 4.72505 14.903 5.2724 14.7434C5.71477 14.6143 6.16151 14.5023 6.55911 14.4394C6.90162 14.3853 7.39864 14.3321 7.82655 14.4801C8.78688 14.8123 9.86117 15 10.9996 15C13.1468 15 15.0537 14.3333 16.4026 13.3018C17.7505 12.271 18.4996 10.9179 18.4996 9.5C18.4996 8.08209 17.7505 6.72895 16.4026 5.69816C15.0537 4.66667 13.1468 4 10.9996 4C8.85242 4 6.94552 4.66667 5.59664 5.69816ZM4.38174 4.10945C6.10925 2.78841 8.45234 2 10.9996 2C13.5468 2 15.8899 2.78841 17.6175 4.10945C19.3459 5.43119 20.4996 7.32806 20.4996 9.5C20.4996 11.6719 19.3459 13.5688 17.6175 14.8906C15.8899 16.2116 13.5468 17 10.9996 17C9.65654 17 8.37366 16.7811 7.20886 16.3826C7.2077 16.3859 7.11322 16.3767 6.87147 16.4149C6.59282 16.459 6.23713 16.5453 5.83253 16.6633C5.02707 16.8983 4.12252 17.2308 3.43353 17.4989C2.2399 17.9634 1.02395 16.8171 1.42611 15.5959C1.63926 14.9487 1.89065 14.1308 2.05449 13.4246C2.13702 13.0689 2.19058 12.7698 2.21062 12.5483C2.21758 12.4714 2.21938 12.4154 2.21897 12.3775C1.75869 11.4979 1.49959 10.5252 1.49959 9.5C1.49959 7.32806 2.6533 5.43119 4.38174 4.10945Z" fill="#FF3F3A"/>
<g clip-path="url(#clip1_2435_8123)">
<path d="M44.155 5.878V7.425H41.11V16H39.227V7.425H36.168V5.878H44.155ZM49.1692 16H48.3922C48.2289 16 48.1005 15.9767 48.0072 15.93C47.9139 15.8787 47.8439 15.7783 47.7972 15.629L47.6432 15.118C47.4612 15.2813 47.2815 15.426 47.1042 15.552C46.9315 15.6733 46.7519 15.776 46.5652 15.86C46.3785 15.944 46.1802 16.007 45.9702 16.049C45.7602 16.091 45.5269 16.112 45.2702 16.112C44.9669 16.112 44.6869 16.0723 44.4302 15.993C44.1735 15.909 43.9519 15.7853 43.7652 15.622C43.5832 15.4587 43.4409 15.2557 43.3382 15.013C43.2355 14.7703 43.1842 14.488 43.1842 14.166C43.1842 13.8953 43.2542 13.6293 43.3942 13.368C43.5389 13.102 43.7769 12.864 44.1082 12.654C44.4395 12.4393 44.8805 12.262 45.4312 12.122C45.9819 11.982 46.6655 11.9027 47.4822 11.884V11.464C47.4822 10.9833 47.3795 10.6287 47.1742 10.4C46.9735 10.1667 46.6795 10.05 46.2922 10.05C46.0122 10.05 45.7789 10.0827 45.5922 10.148C45.4055 10.2133 45.2422 10.288 45.1022 10.372C44.9669 10.4513 44.8409 10.5237 44.7242 10.589C44.6075 10.6543 44.4792 10.687 44.3392 10.687C44.2225 10.687 44.1222 10.6567 44.0382 10.596C43.9542 10.5353 43.8865 10.4607 43.8352 10.372L43.5202 9.819C44.3462 9.063 45.3425 8.685 46.5092 8.685C46.9292 8.685 47.3025 8.755 47.6292 8.895C47.9605 9.03033 48.2405 9.22167 48.4692 9.469C48.6979 9.71167 48.8705 10.0033 48.9872 10.344C49.1085 10.6847 49.1692 11.058 49.1692 11.464V16ZM45.8092 14.922C45.9865 14.922 46.1499 14.9057 46.2992 14.873C46.4485 14.8403 46.5885 14.7913 46.7192 14.726C46.8545 14.6607 46.9829 14.5813 47.1042 14.488C47.2302 14.39 47.3562 14.2757 47.4822 14.145V12.934C46.9782 12.9573 46.5559 13.0017 46.2152 13.067C45.8792 13.1277 45.6085 13.207 45.4032 13.305C45.1979 13.403 45.0509 13.5173 44.9622 13.648C44.8782 13.7787 44.8362 13.921 44.8362 14.075C44.8362 14.3783 44.9249 14.5953 45.1022 14.726C45.2842 14.8567 45.5199 14.922 45.8092 14.922ZM52.7103 5.598V16H50.9813V5.598H52.7103ZM56.4201 5.598V11.555H56.7421C56.8588 11.555 56.9498 11.5387 57.0151 11.506C57.0804 11.4733 57.1504 11.4127 57.2251 11.324L59.0101 9.119C59.0894 9.02567 59.1734 8.95333 59.2621 8.902C59.3508 8.846 59.4674 8.818 59.6121 8.818H61.1941L58.9611 11.485C58.8818 11.583 58.8001 11.674 58.7161 11.758C58.6321 11.8373 58.5411 11.9073 58.4431 11.968C58.5411 12.038 58.6274 12.1197 58.7021 12.213C58.7768 12.3063 58.8514 12.4067 58.9261 12.514L61.3201 16H59.7591C59.6238 16 59.5094 15.9767 59.4161 15.93C59.3228 15.8833 59.2388 15.804 59.1641 15.692L57.3371 12.969C57.2671 12.8617 57.1971 12.7917 57.1271 12.759C57.0571 12.7263 56.9521 12.71 56.8121 12.71H56.4201V16H54.6911V5.598H56.4201ZM67.4607 16.112C66.8401 16.112 66.3617 15.937 66.0257 15.587C65.6897 15.2323 65.5217 14.7447 65.5217 14.124V10.113H64.7937C64.7004 10.113 64.6187 10.0827 64.5487 10.022C64.4834 9.96133 64.4507 9.87033 64.4507 9.749V9.063L65.6057 8.874L65.9697 6.914C65.9884 6.82067 66.0304 6.74833 66.0957 6.697C66.1657 6.64567 66.2521 6.62 66.3547 6.62H67.2507V8.881H69.1407V10.113H67.2507V14.005C67.2507 14.229 67.3067 14.404 67.4187 14.53C67.5307 14.656 67.6801 14.719 67.8667 14.719C67.9741 14.719 68.0627 14.7073 68.1327 14.684C68.2074 14.656 68.2704 14.628 68.3217 14.6C68.3777 14.572 68.4267 14.5463 68.4687 14.523C68.5107 14.495 68.5527 14.481 68.5947 14.481C68.6461 14.481 68.6881 14.495 68.7207 14.523C68.7534 14.5463 68.7884 14.5837 68.8257 14.635L69.3437 15.475C69.0917 15.685 68.8024 15.8437 68.4757 15.951C68.1491 16.0583 67.8107 16.112 67.4607 16.112ZM73.5818 8.706C74.1185 8.706 74.6038 8.79233 75.0378 8.965C75.4765 9.13767 75.8498 9.38267 76.1578 9.7C76.4658 10.0173 76.7038 10.4047 76.8718 10.862C77.0398 11.3193 77.1238 11.8303 77.1238 12.395C77.1238 12.9643 77.0398 13.4777 76.8718 13.935C76.7038 14.3923 76.4658 14.782 76.1578 15.104C75.8498 15.426 75.4765 15.6733 75.0378 15.846C74.6038 16.0187 74.1185 16.105 73.5818 16.105C73.0451 16.105 72.5575 16.0187 72.1188 15.846C71.6801 15.6733 71.3045 15.426 70.9918 15.104C70.6838 14.782 70.4435 14.3923 70.2708 13.935C70.1028 13.4777 70.0188 12.9643 70.0188 12.395C70.0188 11.8303 70.1028 11.3193 70.2708 10.862C70.4435 10.4047 70.6838 10.0173 70.9918 9.7C71.3045 9.38267 71.6801 9.13767 72.1188 8.965C72.5575 8.79233 73.0451 8.706 73.5818 8.706ZM73.5818 14.775C74.1791 14.775 74.6201 14.5743 74.9048 14.173C75.1941 13.7717 75.3388 13.1837 75.3388 12.409C75.3388 11.6343 75.1941 11.044 74.9048 10.638C74.6201 10.232 74.1791 10.029 73.5818 10.029C72.9751 10.029 72.5271 10.2343 72.2378 10.645C71.9485 11.051 71.8038 11.639 71.8038 12.409C71.8038 13.179 71.9485 13.767 72.2378 14.173C72.5271 14.5743 72.9751 14.775 73.5818 14.775ZM82.7619 8.818V13.382C82.7619 13.8207 82.8622 14.1613 83.0629 14.404C83.2682 14.642 83.5739 14.761 83.9799 14.761C84.2785 14.761 84.5585 14.6957 84.8199 14.565C85.0812 14.4297 85.3285 14.2453 85.5619 14.012V8.818H87.2909V16H86.2339C86.0099 16 85.8629 15.895 85.7929 15.685L85.6739 15.111C85.5245 15.2603 85.3705 15.398 85.2119 15.524C85.0532 15.6453 84.8829 15.7503 84.7009 15.839C84.5235 15.923 84.3299 15.9883 84.1199 16.035C83.9145 16.0863 83.6929 16.112 83.4549 16.112C83.0629 16.112 82.7152 16.0467 82.4119 15.916C82.1132 15.7807 81.8612 15.5917 81.6559 15.349C81.4505 15.1063 81.2942 14.8193 81.1869 14.488C81.0842 14.152 81.0329 13.7833 81.0329 13.382V8.818H82.7619ZM93.3999 10.218C93.3532 10.2927 93.3042 10.3463 93.2529 10.379C93.2016 10.407 93.1362 10.421 93.0569 10.421C92.9729 10.421 92.8819 10.3977 92.7839 10.351C92.6906 10.3043 92.5809 10.253 92.4549 10.197C92.3289 10.1363 92.1842 10.0827 92.0209 10.036C91.8622 9.98933 91.6732 9.966 91.4539 9.966C91.1132 9.966 90.8449 10.0383 90.6489 10.183C90.4529 10.3277 90.3549 10.5167 90.3549 10.75C90.3549 10.904 90.4039 11.0347 90.5019 11.142C90.6046 11.2447 90.7376 11.3357 90.9009 11.415C91.0689 11.4943 91.2579 11.5667 91.4679 11.632C91.6779 11.6927 91.8926 11.7603 92.1119 11.835C92.3312 11.9097 92.5459 11.996 92.7559 12.094C92.9659 12.1873 93.1526 12.3087 93.3159 12.458C93.4839 12.6027 93.6169 12.7777 93.7149 12.983C93.8176 13.1883 93.8689 13.4357 93.8689 13.725C93.8689 14.0703 93.8059 14.39 93.6799 14.684C93.5539 14.9733 93.3696 15.2253 93.1269 15.44C92.8842 15.65 92.5832 15.8157 92.2239 15.937C91.8692 16.0537 91.4609 16.112 90.9989 16.112C90.7516 16.112 90.5089 16.0887 90.2709 16.042C90.0376 16 89.8112 15.9393 89.5919 15.86C89.3772 15.7807 89.1766 15.6873 88.9899 15.58C88.8079 15.4727 88.6469 15.356 88.5069 15.23L88.9059 14.572C88.9572 14.4927 89.0179 14.432 89.0879 14.39C89.1579 14.348 89.2466 14.327 89.3539 14.327C89.4612 14.327 89.5616 14.3573 89.6549 14.418C89.7529 14.4787 89.8649 14.544 89.9909 14.614C90.1169 14.684 90.2639 14.7493 90.4319 14.81C90.6046 14.8707 90.8216 14.901 91.0829 14.901C91.2882 14.901 91.4632 14.8777 91.6079 14.831C91.7572 14.7797 91.8786 14.7143 91.9719 14.635C92.0699 14.5557 92.1399 14.4647 92.1819 14.362C92.2286 14.2547 92.2519 14.145 92.2519 14.033C92.2519 13.865 92.2006 13.7273 92.0979 13.62C91.9999 13.5127 91.8669 13.4193 91.6989 13.34C91.5356 13.2607 91.3466 13.1907 91.1319 13.13C90.9219 13.0647 90.7049 12.9947 90.4809 12.92C90.2616 12.8453 90.0446 12.759 89.8299 12.661C89.6199 12.5583 89.4309 12.43 89.2629 12.276C89.0996 12.122 88.9666 11.933 88.8639 11.709C88.7659 11.485 88.7169 11.2143 88.7169 10.897C88.7169 10.603 88.7752 10.323 88.8919 10.057C89.0086 9.791 89.1789 9.56 89.4029 9.364C89.6316 9.16333 89.9139 9.00467 90.2499 8.888C90.5906 8.76667 90.9826 8.706 91.4259 8.706C91.9206 8.706 92.3709 8.78767 92.7769 8.951C93.1829 9.11433 93.5212 9.329 93.7919 9.595L93.3999 10.218ZM95.1152 15.048C95.1152 14.9033 95.1409 14.7657 95.1922 14.635C95.2482 14.5043 95.3229 14.3923 95.4162 14.299C95.5142 14.2057 95.6286 14.131 95.7592 14.075C95.8899 14.019 96.0299 13.991 96.1792 13.991C96.3239 13.991 96.4616 14.019 96.5922 14.075C96.7229 14.131 96.8349 14.2057 96.9282 14.299C97.0216 14.3923 97.0962 14.5043 97.1522 14.635C97.2082 14.7657 97.2362 14.9033 97.2362 15.048C97.2362 15.1973 97.2082 15.3373 97.1522 15.468C97.0962 15.594 97.0216 15.7037 96.9282 15.797C96.8349 15.8903 96.7229 15.9627 96.5922 16.014C96.4616 16.07 96.3239 16.098 96.1792 16.098C96.0299 16.098 95.8899 16.07 95.7592 16.014C95.6286 15.9627 95.5142 15.8903 95.4162 15.797C95.3229 15.7037 95.2482 15.594 95.1922 15.468C95.1409 15.3373 95.1152 15.1973 95.1152 15.048ZM95.1152 10.057C95.1152 9.91233 95.1409 9.77467 95.1922 9.644C95.2482 9.51333 95.3229 9.40133 95.4162 9.308C95.5142 9.21467 95.6286 9.14 95.7592 9.084C95.8899 9.028 96.0299 9 96.1792 9C96.3239 9 96.4616 9.028 96.5922 9.084C96.7229 9.14 96.8349 9.21467 96.9282 9.308C97.0216 9.40133 97.0962 9.51333 97.1522 9.644C97.2082 9.77467 97.2362 9.91233 97.2362 10.057C97.2362 10.2063 97.2082 10.3463 97.1522 10.477C97.0962 10.603 97.0216 10.7127 96.9282 10.806C96.8349 10.8993 96.7229 10.974 96.5922 11.03C96.4616 11.0813 96.3239 11.107 96.1792 11.107C96.0299 11.107 95.8899 11.0813 95.7592 11.03C95.6286 10.974 95.5142 10.8993 95.4162 10.806C95.3229 10.7127 95.2482 10.603 95.1922 10.477C95.1409 10.3463 95.1152 10.2063 95.1152 10.057Z" fill="#787A80"/>
<path d="M37.314 41V27.743H38.916V33.107C39.306 32.693 39.738 32.363 40.212 32.117C40.686 31.865 41.232 31.739 41.85 31.739C42.348 31.739 42.786 31.823 43.164 31.991C43.548 32.153 43.866 32.387 44.118 32.693C44.376 32.993 44.571 33.356 44.703 33.782C44.835 34.208 44.901 34.679 44.901 35.195V41H43.299V35.195C43.299 34.505 43.14 33.971 42.822 33.593C42.51 33.209 42.03 33.017 41.382 33.017C40.908 33.017 40.464 33.131 40.05 33.359C39.642 33.587 39.264 33.896 38.916 34.286V41H37.314ZM50.925 31.739C51.471 31.739 51.975 31.832 52.437 32.018C52.899 32.198 53.298 32.462 53.634 32.81C53.97 33.152 54.231 33.578 54.417 34.088C54.609 34.592 54.705 35.168 54.705 35.816C54.705 36.068 54.678 36.236 54.624 36.32C54.57 36.404 54.468 36.446 54.318 36.446H48.252C48.264 37.022 48.342 37.523 48.486 37.949C48.63 38.375 48.828 38.732 49.08 39.02C49.332 39.302 49.632 39.515 49.98 39.659C50.328 39.797 50.718 39.866 51.15 39.866C51.552 39.866 51.897 39.821 52.185 39.731C52.479 39.635 52.731 39.533 52.941 39.425C53.151 39.317 53.325 39.218 53.463 39.128C53.607 39.032 53.73 38.984 53.832 38.984C53.964 38.984 54.066 39.035 54.138 39.137L54.588 39.722C54.39 39.962 54.153 40.172 53.877 40.352C53.601 40.526 53.304 40.67 52.986 40.784C52.674 40.898 52.35 40.982 52.014 41.036C51.678 41.096 51.345 41.126 51.015 41.126C50.385 41.126 49.803 41.021 49.269 40.811C48.741 40.595 48.282 40.283 47.892 39.875C47.508 39.461 47.208 38.951 46.992 38.345C46.776 37.739 46.668 37.043 46.668 36.257C46.668 35.621 46.764 35.027 46.956 34.475C47.154 33.923 47.436 33.446 47.802 33.044C48.168 32.636 48.615 32.318 49.143 32.09C49.671 31.856 50.265 31.739 50.925 31.739ZM50.961 32.918C50.187 32.918 49.578 33.143 49.134 33.593C48.69 34.037 48.414 34.655 48.306 35.447H53.265C53.265 35.075 53.214 34.736 53.112 34.43C53.01 34.118 52.86 33.851 52.662 33.629C52.464 33.401 52.221 33.227 51.933 33.107C51.651 32.981 51.327 32.918 50.961 32.918ZM58.5374 27.743V41H56.9354V27.743H58.5374ZM63.1429 27.743V41H61.5409V27.743H63.1429ZM69.6563 31.739C70.3223 31.739 70.9223 31.85 71.4563 32.072C71.9963 32.294 72.4523 32.609 72.8243 33.017C73.2023 33.425 73.4903 33.92 73.6883 34.502C73.8923 35.078 73.9943 35.723 73.9943 36.437C73.9943 37.157 73.8923 37.805 73.6883 38.381C73.4903 38.957 73.2023 39.449 72.8243 39.857C72.4523 40.265 71.9963 40.58 71.4563 40.802C70.9223 41.018 70.3223 41.126 69.6563 41.126C68.9903 41.126 68.3873 41.018 67.8473 40.802C67.3133 40.58 66.8573 40.265 66.4793 39.857C66.1013 39.449 65.8103 38.957 65.6063 38.381C65.4023 37.805 65.3003 37.157 65.3003 36.437C65.3003 35.723 65.4023 35.078 65.6063 34.502C65.8103 33.92 66.1013 33.425 66.4793 33.017C66.8573 32.609 67.3133 32.294 67.8473 32.072C68.3873 31.85 68.9903 31.739 69.6563 31.739ZM69.6563 39.875C70.5563 39.875 71.2283 39.575 71.6723 38.975C72.1163 38.369 72.3383 37.526 72.3383 36.446C72.3383 35.36 72.1163 34.514 71.6723 33.908C71.2283 33.302 70.5563 32.999 69.6563 32.999C69.2003 32.999 68.8043 33.077 68.4683 33.233C68.1323 33.389 67.8503 33.614 67.6223 33.908C67.4003 34.202 67.2323 34.565 67.1183 34.997C67.0103 35.423 66.9563 35.906 66.9563 36.446C66.9563 36.986 67.0103 37.469 67.1183 37.895C67.2323 38.321 67.4003 38.681 67.6223 38.975C67.8503 39.263 68.1323 39.485 68.4683 39.641C68.8043 39.797 69.2003 39.875 69.6563 39.875ZM85.1573 39.326C84.6893 39.326 84.3083 39.215 84.0143 38.993C83.7203 38.765 83.5343 38.417 83.4563 37.949C83.1083 38.435 82.7303 38.783 82.3223 38.993C81.9143 39.203 81.4763 39.308 81.0083 39.308C80.6483 39.308 80.3363 39.248 80.0723 39.128C79.8083 39.002 79.5863 38.831 79.4063 38.615C79.2323 38.393 79.1003 38.132 79.0103 37.832C78.9263 37.532 78.8843 37.208 78.8843 36.86C78.8843 36.35 78.9803 35.837 79.1723 35.321C79.3703 34.799 79.6613 34.331 80.0453 33.917C80.4293 33.497 80.9063 33.155 81.4763 32.891C82.0523 32.627 82.7153 32.495 83.4653 32.495C83.8673 32.495 84.2183 32.528 84.5183 32.594C84.8243 32.654 85.1123 32.744 85.3823 32.864L84.5453 36.113C84.4313 36.563 84.3743 36.935 84.3743 37.229C84.3743 37.445 84.4013 37.625 84.4553 37.769C84.5093 37.907 84.5813 38.018 84.6713 38.102C84.7673 38.18 84.8753 38.234 84.9953 38.264C85.1213 38.294 85.2533 38.309 85.3913 38.309C85.6853 38.309 85.9643 38.225 86.2283 38.057C86.4923 37.889 86.7233 37.652 86.9213 37.346C87.1253 37.04 87.2843 36.674 87.3983 36.248C87.5183 35.816 87.5783 35.339 87.5783 34.817C87.5783 33.989 87.4433 33.263 87.1733 32.639C86.9093 32.015 86.5433 31.496 86.0753 31.082C85.6133 30.662 85.0643 30.35 84.4283 30.146C83.7983 29.936 83.1173 29.831 82.3853 29.831C81.5813 29.831 80.8283 29.984 80.1263 30.29C79.4243 30.596 78.8123 31.019 78.2903 31.559C77.7683 32.099 77.3573 32.738 77.0573 33.476C76.7573 34.214 76.6073 35.018 76.6073 35.888C76.6073 36.908 76.7663 37.805 77.0843 38.579C77.4083 39.347 77.8463 39.992 78.3983 40.514C78.9563 41.036 79.6073 41.429 80.3513 41.693C81.1013 41.957 81.9053 42.089 82.7633 42.089C83.6753 42.089 84.4793 41.99 85.1753 41.792C85.8773 41.594 86.4833 41.342 86.9933 41.036C87.0833 40.982 87.1643 40.955 87.2363 40.955C87.3623 40.955 87.4553 41.027 87.5153 41.171L87.7403 41.765C87.0983 42.197 86.3663 42.536 85.5443 42.782C84.7283 43.028 83.8013 43.151 82.7633 43.151C81.7253 43.151 80.7593 42.986 79.8653 42.656C78.9713 42.326 78.1943 41.849 77.5343 41.225C76.8803 40.607 76.3643 39.848 75.9863 38.948C75.6143 38.048 75.4283 37.028 75.4283 35.888C75.4283 35.234 75.5093 34.604 75.6713 33.998C75.8393 33.392 76.0733 32.828 76.3733 32.306C76.6733 31.778 77.0333 31.298 77.4533 30.866C77.8733 30.428 78.3413 30.056 78.8573 29.75C79.3733 29.438 79.9283 29.198 80.5223 29.03C81.1163 28.856 81.7373 28.769 82.3853 28.769C82.9373 28.769 83.4773 28.829 84.0053 28.949C84.5333 29.069 85.0313 29.246 85.4993 29.48C85.9733 29.714 86.4083 30.005 86.8043 30.353C87.2003 30.695 87.5393 31.091 87.8213 31.541C88.1093 31.985 88.3313 32.483 88.4873 33.035C88.6493 33.581 88.7303 34.175 88.7303 34.817C88.7303 35.465 88.6373 36.065 88.4513 36.617C88.2713 37.163 88.0193 37.637 87.6953 38.039C87.3773 38.441 86.9993 38.756 86.5613 38.984C86.1293 39.212 85.6613 39.326 85.1573 39.326ZM81.3233 38.246C81.5093 38.246 81.6953 38.216 81.8813 38.156C82.0733 38.096 82.2563 37.991 82.4303 37.841C82.6103 37.691 82.7723 37.487 82.9163 37.229C83.0663 36.971 83.1923 36.647 83.2943 36.257L83.9783 33.602C83.7443 33.548 83.4893 33.521 83.2133 33.521C82.7633 33.521 82.3493 33.617 81.9713 33.809C81.5993 33.995 81.2783 34.241 81.0083 34.547C80.7383 34.853 80.5253 35.204 80.3693 35.6C80.2193 35.996 80.1443 36.401 80.1443 36.815C80.1443 37.247 80.2433 37.595 80.4413 37.859C80.6393 38.117 80.9333 38.246 81.3233 38.246ZM96.9881 33.503C96.9401 33.569 96.8921 33.62 96.8441 33.656C96.7961 33.692 96.7271 33.71 96.6371 33.71C96.5471 33.71 96.4481 33.674 96.3401 33.602C96.2381 33.524 96.1061 33.44 95.9441 33.35C95.7821 33.26 95.5841 33.179 95.3501 33.107C95.1221 33.029 94.8401 32.99 94.5041 32.99C94.0601 32.99 93.6671 33.071 93.3251 33.233C92.9831 33.389 92.6951 33.617 92.4611 33.917C92.2331 34.217 92.0591 34.58 91.9391 35.006C91.8251 35.432 91.7681 35.909 91.7681 36.437C91.7681 36.989 91.8311 37.481 91.9571 37.913C92.0831 38.339 92.2601 38.699 92.4881 38.993C92.7161 39.281 92.9921 39.503 93.3161 39.659C93.6461 39.809 94.0151 39.884 94.4231 39.884C94.8131 39.884 95.1341 39.839 95.3861 39.749C95.6381 39.653 95.8481 39.548 96.0161 39.434C96.1841 39.32 96.3221 39.218 96.4301 39.128C96.5381 39.032 96.6461 38.984 96.7541 38.984C96.8921 38.984 96.9941 39.035 97.0601 39.137L97.5101 39.722C97.1141 40.208 96.6191 40.565 96.0251 40.793C95.4311 41.015 94.8041 41.126 94.1441 41.126C93.5741 41.126 93.0431 41.021 92.5511 40.811C92.0651 40.601 91.6421 40.298 91.2821 39.902C90.9221 39.5 90.6371 39.008 90.4271 38.426C90.2231 37.844 90.1211 37.181 90.1211 36.437C90.1211 35.759 90.2141 35.132 90.4001 34.556C90.5921 33.98 90.8681 33.485 91.2281 33.071C91.5941 32.651 92.0441 32.324 92.5781 32.09C93.1121 31.856 93.7241 31.739 94.4141 31.739C95.0501 31.739 95.6141 31.844 96.1061 32.054C96.5981 32.258 97.0331 32.549 97.4111 32.927L96.9881 33.503ZM99.1714 41V31.883H100.089C100.263 31.883 100.383 31.916 100.449 31.982C100.515 32.048 100.56 32.162 100.584 32.324L100.692 33.746C101.004 33.11 101.388 32.615 101.844 32.261C102.306 31.901 102.846 31.721 103.464 31.721C103.716 31.721 103.944 31.751 104.148 31.811C104.352 31.865 104.541 31.943 104.715 32.045L104.508 33.242C104.466 33.392 104.373 33.467 104.229 33.467C104.145 33.467 104.016 33.44 103.842 33.386C103.668 33.326 103.425 33.296 103.113 33.296C102.555 33.296 102.087 33.458 101.709 33.782C101.337 34.106 101.025 34.577 100.773 35.195V41H99.1714ZM110.04 31.739C110.586 31.739 111.09 31.832 111.552 32.018C112.014 32.198 112.413 32.462 112.749 32.81C113.085 33.152 113.346 33.578 113.532 34.088C113.724 34.592 113.82 35.168 113.82 35.816C113.82 36.068 113.793 36.236 113.739 36.32C113.685 36.404 113.583 36.446 113.433 36.446H107.367C107.379 37.022 107.457 37.523 107.601 37.949C107.745 38.375 107.943 38.732 108.195 39.02C108.447 39.302 108.747 39.515 109.095 39.659C109.443 39.797 109.833 39.866 110.265 39.866C110.667 39.866 111.012 39.821 111.3 39.731C111.594 39.635 111.846 39.533 112.056 39.425C112.266 39.317 112.44 39.218 112.578 39.128C112.722 39.032 112.845 38.984 112.947 38.984C113.079 38.984 113.181 39.035 113.253 39.137L113.703 39.722C113.505 39.962 113.268 40.172 112.992 40.352C112.716 40.526 112.419 40.67 112.101 40.784C111.789 40.898 111.465 40.982 111.129 41.036C110.793 41.096 110.46 41.126 110.13 41.126C109.5 41.126 108.918 41.021 108.384 40.811C107.856 40.595 107.397 40.283 107.007 39.875C106.623 39.461 106.323 38.951 106.107 38.345C105.891 37.739 105.783 37.043 105.783 36.257C105.783 35.621 105.879 35.027 106.071 34.475C106.269 33.923 106.551 33.446 106.917 33.044C107.283 32.636 107.73 32.318 108.258 32.09C108.786 31.856 109.38 31.739 110.04 31.739ZM110.076 32.918C109.302 32.918 108.693 33.143 108.249 33.593C107.805 34.037 107.529 34.655 107.421 35.447H112.38C112.38 35.075 112.329 34.736 112.227 34.43C112.125 34.118 111.975 33.851 111.777 33.629C111.579 33.401 111.336 33.227 111.048 33.107C110.766 32.981 110.442 32.918 110.076 32.918ZM122.567 41H121.856C121.7 41 121.574 40.976 121.478 40.928C121.382 40.88 121.319 40.778 121.289 40.622L121.109 39.776C120.869 39.992 120.635 40.187 120.407 40.361C120.179 40.529 119.939 40.673 119.687 40.793C119.435 40.907 119.165 40.994 118.877 41.054C118.595 41.114 118.28 41.144 117.932 41.144C117.578 41.144 117.245 41.096 116.933 41C116.627 40.898 116.36 40.748 116.132 40.55C115.904 40.352 115.721 40.103 115.583 39.803C115.451 39.497 115.385 39.137 115.385 38.723C115.385 38.363 115.484 38.018 115.682 37.688C115.88 37.352 116.198 37.055 116.636 36.797C117.08 36.539 117.659 36.329 118.373 36.167C119.087 35.999 119.96 35.903 120.992 35.879V35.168C120.992 34.46 120.839 33.926 120.533 33.566C120.233 33.2 119.786 33.017 119.192 33.017C118.802 33.017 118.472 33.068 118.202 33.17C117.938 33.266 117.707 33.377 117.509 33.503C117.317 33.623 117.149 33.734 117.005 33.836C116.867 33.932 116.729 33.98 116.591 33.98C116.483 33.98 116.387 33.953 116.303 33.899C116.225 33.839 116.162 33.767 116.114 33.683L115.826 33.17C116.33 32.684 116.873 32.321 117.455 32.081C118.037 31.841 118.682 31.721 119.39 31.721C119.9 31.721 120.353 31.805 120.749 31.973C121.145 32.141 121.478 32.375 121.748 32.675C122.018 32.975 122.222 33.338 122.36 33.764C122.498 34.19 122.567 34.658 122.567 35.168V41ZM118.409 40.019C118.691 40.019 118.949 39.992 119.183 39.938C119.417 39.878 119.636 39.797 119.84 39.695C120.05 39.587 120.248 39.458 120.434 39.308C120.626 39.158 120.812 38.987 120.992 38.795V36.896C120.254 36.92 119.627 36.98 119.111 37.076C118.595 37.166 118.175 37.286 117.851 37.436C117.527 37.586 117.29 37.763 117.14 37.967C116.996 38.171 116.924 38.399 116.924 38.651C116.924 38.891 116.963 39.098 117.041 39.272C117.119 39.446 117.224 39.59 117.356 39.704C117.488 39.812 117.644 39.893 117.824 39.947C118.004 39.995 118.199 40.019 118.409 40.019ZM127.757 41.144C127.037 41.144 126.482 40.943 126.092 40.541C125.708 40.139 125.516 39.56 125.516 38.804V33.224H124.418C124.322 33.224 124.241 33.197 124.175 33.143C124.109 33.083 124.076 32.993 124.076 32.873V32.234L125.57 32.045L125.939 29.228C125.951 29.138 125.99 29.066 126.056 29.012C126.122 28.952 126.206 28.922 126.308 28.922H127.118V32.063H129.728V33.224H127.118V38.696C127.118 39.08 127.211 39.365 127.397 39.551C127.583 39.737 127.823 39.83 128.117 39.83C128.285 39.83 128.429 39.809 128.549 39.767C128.675 39.719 128.783 39.668 128.873 39.614C128.963 39.56 129.038 39.512 129.098 39.47C129.164 39.422 129.221 39.398 129.269 39.398C129.353 39.398 129.428 39.449 129.494 39.551L129.962 40.316C129.686 40.574 129.353 40.778 128.963 40.928C128.573 41.072 128.171 41.144 127.757 41.144ZM135.318 31.739C135.864 31.739 136.368 31.832 136.83 32.018C137.292 32.198 137.691 32.462 138.027 32.81C138.363 33.152 138.624 33.578 138.81 34.088C139.002 34.592 139.098 35.168 139.098 35.816C139.098 36.068 139.071 36.236 139.017 36.32C138.963 36.404 138.861 36.446 138.711 36.446H132.645C132.657 37.022 132.735 37.523 132.879 37.949C133.023 38.375 133.221 38.732 133.473 39.02C133.725 39.302 134.025 39.515 134.373 39.659C134.721 39.797 135.111 39.866 135.543 39.866C135.945 39.866 136.29 39.821 136.578 39.731C136.872 39.635 137.124 39.533 137.334 39.425C137.544 39.317 137.718 39.218 137.856 39.128C138 39.032 138.123 38.984 138.225 38.984C138.357 38.984 138.459 39.035 138.531 39.137L138.981 39.722C138.783 39.962 138.546 40.172 138.27 40.352C137.994 40.526 137.697 40.67 137.379 40.784C137.067 40.898 136.743 40.982 136.407 41.036C136.071 41.096 135.738 41.126 135.408 41.126C134.778 41.126 134.196 41.021 133.662 40.811C133.134 40.595 132.675 40.283 132.285 39.875C131.901 39.461 131.601 38.951 131.385 38.345C131.169 37.739 131.061 37.043 131.061 36.257C131.061 35.621 131.157 35.027 131.349 34.475C131.547 33.923 131.829 33.446 132.195 33.044C132.561 32.636 133.008 32.318 133.536 32.09C134.064 31.856 134.658 31.739 135.318 31.739ZM135.354 32.918C134.58 32.918 133.971 33.143 133.527 33.593C133.083 34.037 132.807 34.655 132.699 35.447H137.658C137.658 35.075 137.607 34.736 137.505 34.43C137.403 34.118 137.253 33.851 137.055 33.629C136.857 33.401 136.614 33.227 136.326 33.107C136.044 32.981 135.72 32.918 135.354 32.918ZM142.736 36.329L139.667 31.883H141.206C141.338 31.883 141.434 31.904 141.494 31.946C141.554 31.988 141.608 32.048 141.656 32.126L143.888 35.546C143.942 35.378 144.02 35.21 144.122 35.042L146.084 32.162C146.144 32.078 146.204 32.012 146.264 31.964C146.324 31.91 146.399 31.883 146.489 31.883H147.965L144.896 36.239L148.091 41H146.552C146.42 41 146.315 40.967 146.237 40.901C146.165 40.829 146.105 40.751 146.057 40.667L143.762 37.094C143.72 37.268 143.657 37.424 143.573 37.562L141.449 40.667C141.389 40.751 141.323 40.829 141.251 40.901C141.185 40.967 141.092 41 140.972 41H139.541L142.736 36.329ZM149.151 40.01C149.151 39.854 149.178 39.707 149.232 39.569C149.292 39.431 149.37 39.311 149.466 39.209C149.568 39.107 149.688 39.026 149.826 38.966C149.964 38.906 150.111 38.876 150.267 38.876C150.423 38.876 150.57 38.906 150.708 38.966C150.846 39.026 150.966 39.107 151.068 39.209C151.17 39.311 151.248 39.431 151.302 39.569C151.362 39.707 151.392 39.854 151.392 40.01C151.392 40.172 151.362 40.322 151.302 40.46C151.248 40.592 151.17 40.709 151.068 40.811C150.966 40.913 150.846 40.991 150.708 41.045C150.57 41.105 150.423 41.135 150.267 41.135C150.111 41.135 149.964 41.105 149.826 41.045C149.688 40.991 149.568 40.913 149.466 40.811C149.37 40.709 149.292 40.592 149.232 40.46C149.178 40.322 149.151 40.172 149.151 40.01ZM159.707 33.503C159.659 33.569 159.611 33.62 159.563 33.656C159.515 33.692 159.446 33.71 159.356 33.71C159.266 33.71 159.167 33.674 159.059 33.602C158.957 33.524 158.825 33.44 158.663 33.35C158.501 33.26 158.303 33.179 158.069 33.107C157.841 33.029 157.559 32.99 157.223 32.99C156.779 32.99 156.386 33.071 156.044 33.233C155.702 33.389 155.414 33.617 155.18 33.917C154.952 34.217 154.778 34.58 154.658 35.006C154.544 35.432 154.487 35.909 154.487 36.437C154.487 36.989 154.55 37.481 154.676 37.913C154.802 38.339 154.979 38.699 155.207 38.993C155.435 39.281 155.711 39.503 156.035 39.659C156.365 39.809 156.734 39.884 157.142 39.884C157.532 39.884 157.853 39.839 158.105 39.749C158.357 39.653 158.567 39.548 158.735 39.434C158.903 39.32 159.041 39.218 159.149 39.128C159.257 39.032 159.365 38.984 159.473 38.984C159.611 38.984 159.713 39.035 159.779 39.137L160.229 39.722C159.833 40.208 159.338 40.565 158.744 40.793C158.15 41.015 157.523 41.126 156.863 41.126C156.293 41.126 155.762 41.021 155.27 40.811C154.784 40.601 154.361 40.298 154.001 39.902C153.641 39.5 153.356 39.008 153.146 38.426C152.942 37.844 152.84 37.181 152.84 36.437C152.84 35.759 152.933 35.132 153.119 34.556C153.311 33.98 153.587 33.485 153.947 33.071C154.313 32.651 154.763 32.324 155.297 32.09C155.831 31.856 156.443 31.739 157.133 31.739C157.769 31.739 158.333 31.844 158.825 32.054C159.317 32.258 159.752 32.549 160.13 32.927L159.707 33.503ZM165.58 31.739C166.246 31.739 166.846 31.85 167.38 32.072C167.92 32.294 168.376 32.609 168.748 33.017C169.126 33.425 169.414 33.92 169.612 34.502C169.816 35.078 169.918 35.723 169.918 36.437C169.918 37.157 169.816 37.805 169.612 38.381C169.414 38.957 169.126 39.449 168.748 39.857C168.376 40.265 167.92 40.58 167.38 40.802C166.846 41.018 166.246 41.126 165.58 41.126C164.914 41.126 164.311 41.018 163.771 40.802C163.237 40.58 162.781 40.265 162.403 39.857C162.025 39.449 161.734 38.957 161.53 38.381C161.326 37.805 161.224 37.157 161.224 36.437C161.224 35.723 161.326 35.078 161.53 34.502C161.734 33.92 162.025 33.425 162.403 33.017C162.781 32.609 163.237 32.294 163.771 32.072C164.311 31.85 164.914 31.739 165.58 31.739ZM165.58 39.875C166.48 39.875 167.152 39.575 167.596 38.975C168.04 38.369 168.262 37.526 168.262 36.446C168.262 35.36 168.04 34.514 167.596 33.908C167.152 33.302 166.48 32.999 165.58 32.999C165.124 32.999 164.728 33.077 164.392 33.233C164.056 33.389 163.774 33.614 163.546 33.908C163.324 34.202 163.156 34.565 163.042 34.997C162.934 35.423 162.88 35.906 162.88 36.446C162.88 36.986 162.934 37.469 163.042 37.895C163.156 38.321 163.324 38.681 163.546 38.975C163.774 39.263 164.056 39.485 164.392 39.641C164.728 39.797 165.124 39.875 165.58 39.875ZM171.892 41V31.883H172.846C173.074 31.883 173.218 31.994 173.278 32.216L173.395 33.152C173.731 32.738 174.106 32.399 174.52 32.135C174.94 31.871 175.426 31.739 175.978 31.739C176.596 31.739 177.094 31.91 177.472 32.252C177.856 32.594 178.132 33.056 178.3 33.638C178.426 33.308 178.591 33.023 178.795 32.783C179.005 32.543 179.239 32.345 179.497 32.189C179.755 32.033 180.028 31.919 180.316 31.847C180.61 31.775 180.907 31.739 181.207 31.739C181.687 31.739 182.113 31.817 182.485 31.973C182.863 32.123 183.181 32.345 183.439 32.639C183.703 32.933 183.904 33.296 184.042 33.728C184.18 34.154 184.249 34.643 184.249 35.195V41H182.647V35.195C182.647 34.481 182.491 33.941 182.179 33.575C181.867 33.203 181.414 33.017 180.82 33.017C180.556 33.017 180.304 33.065 180.064 33.161C179.83 33.251 179.623 33.386 179.443 33.566C179.263 33.746 179.119 33.974 179.011 34.25C178.909 34.52 178.858 34.835 178.858 35.195V41H177.256V35.195C177.256 34.463 177.109 33.917 176.815 33.557C176.521 33.197 176.092 33.017 175.528 33.017C175.132 33.017 174.763 33.125 174.421 33.341C174.085 33.551 173.776 33.839 173.494 34.205V41H171.892Z" fill="#1E212C"/>
<a href="mailto:hello@createx.com">
<rect fill="black" fill-opacity="0" y="2.7" width="149.356" height="21.6"/>
</a>
</g>
</g>
<defs>
<clipPath id="clip0_2435_8123">
<rect width="187" height="48" fill="white"/>
</clipPath>
<clipPath id="clip1_2435_8123">
<rect width="151" height="48" fill="white" transform="translate(36)"/>
</clipPath>
</defs>
</svg>
