<svg width="395" height="48" viewBox="0 0 395 48" fill="none" xmlns="http://www.w3.org/2000/svg">
<path fill-rule="evenodd" clip-rule="evenodd" d="M12 7.75C10.8954 7.75 10 8.64543 10 9.75C10 10.8546 10.8954 11.75 12 11.75C13.1046 11.75 14 10.8546 14 9.75C14 8.64543 13.1046 7.75 12 7.75ZM8 9.75C8 7.54086 9.79086 5.75 12 5.75C14.2091 5.75 16 7.54086 16 9.75C16 11.9591 14.2091 13.75 12 13.75C9.79086 13.75 8 11.9591 8 9.75Z" fill="#FF3F3A"/>
<path fill-rule="evenodd" clip-rule="evenodd" d="M12 3.25C8.38046 3.25 5.5 6.08606 5.5 9.51923C5.5 12.318 7.18201 15.1448 9.02064 17.3682C9.92325 18.4597 10.8284 19.3639 11.5085 19.9951C11.6904 20.164 11.8557 20.3129 12 20.4402C12.1443 20.3129 12.3096 20.164 12.4915 19.9951C13.1716 19.3639 14.0768 18.4597 14.9794 17.3682C16.818 15.1448 18.5 12.318 18.5 9.51923C18.5 6.08606 15.6195 3.25 12 3.25ZM12 21.75C11.3812 22.5355 11.3809 22.5353 11.3807 22.5351L11.3782 22.5332L11.3725 22.5287L11.3531 22.5132C11.3367 22.5 11.3134 22.4812 11.2836 22.4569C11.224 22.4083 11.1386 22.3377 11.031 22.2465C10.8158 22.064 10.5115 21.7986 10.1478 21.4609C9.42158 20.7868 8.45175 19.8187 7.47936 18.6428C5.56799 16.3314 3.5 13.0428 3.5 9.51923C3.5 4.92303 7.33527 1.25 12 1.25C16.6647 1.25 20.5 4.92303 20.5 9.51923C20.5 13.0428 18.432 16.3314 16.5206 18.6428C15.5482 19.8187 14.5784 20.7868 13.8522 21.4609C13.4885 21.7986 13.1842 22.064 12.969 22.2465C12.8614 22.3377 12.776 22.4083 12.7164 22.4569C12.6866 22.4812 12.6633 22.5 12.6469 22.5132L12.6275 22.5287L12.6218 22.5332L12.62 22.5346C12.6197 22.5348 12.6188 22.5355 12 21.75ZM12 21.75L12.6188 22.5355C12.2558 22.8215 11.7437 22.8211 11.3807 22.5351L12 21.75Z" fill="#FF3F3A"/>
<path d="M45.919 16H44.463C44.2997 16 44.1643 15.9603 44.057 15.881C43.9543 15.797 43.8797 15.6943 43.833 15.573L43.077 13.508H38.884L38.128 15.573C38.0907 15.6803 38.016 15.7783 37.904 15.867C37.7967 15.9557 37.6637 16 37.505 16H36.042L40.018 5.878H41.943L45.919 16ZM39.367 12.178H42.594L41.362 8.811C41.306 8.66167 41.243 8.48667 41.173 8.286C41.1077 8.08067 41.0423 7.859 40.977 7.621C40.9117 7.859 40.8463 8.08067 40.781 8.286C40.7203 8.49133 40.6597 8.671 40.599 8.825L39.367 12.178ZM51.9175 16C51.6935 16 51.5465 15.895 51.4765 15.685L51.3365 14.992C51.1871 15.16 51.0308 15.3117 50.8675 15.447C50.7041 15.5823 50.5268 15.699 50.3355 15.797C50.1488 15.895 49.9458 15.9697 49.7265 16.021C49.5118 16.077 49.2785 16.105 49.0265 16.105C48.6345 16.105 48.2751 16.0233 47.9485 15.86C47.6218 15.6967 47.3395 15.461 47.1015 15.153C46.8681 14.8403 46.6861 14.4553 46.5555 13.998C46.4295 13.5407 46.3665 13.018 46.3665 12.43C46.3665 11.898 46.4388 11.4033 46.5835 10.946C46.7281 10.4887 46.9358 10.092 47.2065 9.756C47.4771 9.42 47.8015 9.15867 48.1795 8.972C48.5575 8.78067 48.9821 8.685 49.4535 8.685C49.8548 8.685 50.1978 8.75033 50.4825 8.881C50.7671 9.007 51.0215 9.17733 51.2455 9.392V5.598H52.9745V16H51.9175ZM49.6145 14.733C49.9738 14.733 50.2795 14.6583 50.5315 14.509C50.7835 14.3597 51.0215 14.1473 51.2455 13.872V10.652C51.0495 10.414 50.8348 10.246 50.6015 10.148C50.3728 10.05 50.1255 10.001 49.8595 10.001C49.5981 10.001 49.3601 10.05 49.1455 10.148C48.9355 10.246 48.7558 10.3953 48.6065 10.596C48.4618 10.792 48.3498 11.044 48.2705 11.352C48.1911 11.6553 48.1515 12.0147 48.1515 12.43C48.1515 12.85 48.1841 13.207 48.2495 13.501C48.3195 13.7903 48.4175 14.0283 48.5435 14.215C48.6695 14.397 48.8235 14.53 49.0055 14.614C49.1875 14.6933 49.3905 14.733 49.6145 14.733ZM59.9018 16C59.6778 16 59.5308 15.895 59.4608 15.685L59.3208 14.992C59.1715 15.16 59.0152 15.3117 58.8518 15.447C58.6885 15.5823 58.5112 15.699 58.3198 15.797C58.1332 15.895 57.9302 15.9697 57.7108 16.021C57.4962 16.077 57.2628 16.105 57.0108 16.105C56.6188 16.105 56.2595 16.0233 55.9328 15.86C55.6062 15.6967 55.3238 15.461 55.0858 15.153C54.8525 14.8403 54.6705 14.4553 54.5398 13.998C54.4138 13.5407 54.3508 13.018 54.3508 12.43C54.3508 11.898 54.4232 11.4033 54.5678 10.946C54.7125 10.4887 54.9202 10.092 55.1908 9.756C55.4615 9.42 55.7858 9.15867 56.1638 8.972C56.5418 8.78067 56.9665 8.685 57.4378 8.685C57.8392 8.685 58.1822 8.75033 58.4668 8.881C58.7515 9.007 59.0058 9.17733 59.2298 9.392V5.598H60.9588V16H59.9018ZM57.5988 14.733C57.9582 14.733 58.2638 14.6583 58.5158 14.509C58.7678 14.3597 59.0058 14.1473 59.2298 13.872V10.652C59.0338 10.414 58.8192 10.246 58.5858 10.148C58.3572 10.05 58.1098 10.001 57.8438 10.001C57.5825 10.001 57.3445 10.05 57.1298 10.148C56.9198 10.246 56.7402 10.3953 56.5908 10.596C56.4462 10.792 56.3342 11.044 56.2548 11.352C56.1755 11.6553 56.1358 12.0147 56.1358 12.43C56.1358 12.85 56.1685 13.207 56.2338 13.501C56.3038 13.7903 56.4018 14.0283 56.5278 14.215C56.6538 14.397 56.8078 14.53 56.9898 14.614C57.1718 14.6933 57.3748 14.733 57.5988 14.733ZM62.8322 16V8.818H63.8472C64.0245 8.818 64.1482 8.85067 64.2182 8.916C64.2882 8.98133 64.3349 9.09333 64.3582 9.252L64.4632 10.12C64.7199 9.67667 65.0209 9.32667 65.3662 9.07C65.7115 8.81333 66.0989 8.685 66.5282 8.685C66.8829 8.685 67.1769 8.76667 67.4102 8.93L67.1862 10.225C67.1722 10.309 67.1419 10.3697 67.0952 10.407C67.0485 10.4397 66.9855 10.456 66.9062 10.456C66.8362 10.456 66.7405 10.4397 66.6192 10.407C66.4979 10.3743 66.3369 10.358 66.1362 10.358C65.7769 10.358 65.4689 10.4583 65.2122 10.659C64.9555 10.855 64.7385 11.1443 64.5612 11.527V16H62.8322ZM71.515 8.706C71.9677 8.706 72.383 8.77833 72.761 8.923C73.1437 9.06767 73.4727 9.28 73.748 9.56C74.0234 9.83533 74.238 10.176 74.392 10.582C74.546 10.9833 74.623 11.443 74.623 11.961C74.623 12.0917 74.616 12.2013 74.602 12.29C74.5927 12.374 74.5717 12.4417 74.539 12.493C74.511 12.5397 74.4714 12.5747 74.42 12.598C74.3687 12.6167 74.3034 12.626 74.224 12.626H69.786C69.8374 13.3633 70.0357 13.9047 70.381 14.25C70.7264 14.5953 71.1837 14.768 71.753 14.768C72.033 14.768 72.2734 14.7353 72.474 14.67C72.6794 14.6047 72.8567 14.5323 73.006 14.453C73.16 14.3737 73.293 14.3013 73.405 14.236C73.5217 14.1707 73.6337 14.138 73.741 14.138C73.811 14.138 73.8717 14.152 73.923 14.18C73.9744 14.208 74.0187 14.2477 74.056 14.299L74.56 14.929C74.3687 15.153 74.154 15.342 73.916 15.496C73.678 15.6453 73.4284 15.7667 73.167 15.86C72.9104 15.9487 72.6467 16.0117 72.376 16.049C72.11 16.0863 71.851 16.105 71.599 16.105C71.0997 16.105 70.6354 16.0233 70.206 15.86C69.7767 15.692 69.4034 15.447 69.086 15.125C68.7687 14.7983 68.519 14.397 68.337 13.921C68.155 13.4403 68.064 12.885 68.064 12.255C68.064 11.765 68.1434 11.3053 68.302 10.876C68.4607 10.442 68.687 10.0663 68.981 9.749C69.2797 9.427 69.6414 9.17267 70.066 8.986C70.4954 8.79933 70.9784 8.706 71.515 8.706ZM71.55 9.945C71.046 9.945 70.6517 10.0873 70.367 10.372C70.0824 10.6567 69.9004 11.0603 69.821 11.583H73.069C73.069 11.359 73.0387 11.149 72.978 10.953C72.9174 10.7523 72.824 10.5773 72.698 10.428C72.572 10.2787 72.4134 10.162 72.222 10.078C72.0307 9.98933 71.8067 9.945 71.55 9.945ZM80.2886 10.218C80.2419 10.2927 80.1929 10.3463 80.1416 10.379C80.0902 10.407 80.0249 10.421 79.9456 10.421C79.8616 10.421 79.7706 10.3977 79.6726 10.351C79.5792 10.3043 79.4696 10.253 79.3436 10.197C79.2176 10.1363 79.0729 10.0827 78.9096 10.036C78.7509 9.98933 78.5619 9.966 78.3426 9.966C78.0019 9.966 77.7336 10.0383 77.5376 10.183C77.3416 10.3277 77.2436 10.5167 77.2436 10.75C77.2436 10.904 77.2926 11.0347 77.3906 11.142C77.4932 11.2447 77.6262 11.3357 77.7896 11.415C77.9576 11.4943 78.1466 11.5667 78.3566 11.632C78.5666 11.6927 78.7812 11.7603 79.0006 11.835C79.2199 11.9097 79.4346 11.996 79.6446 12.094C79.8546 12.1873 80.0412 12.3087 80.2046 12.458C80.3726 12.6027 80.5056 12.7777 80.6036 12.983C80.7062 13.1883 80.7576 13.4357 80.7576 13.725C80.7576 14.0703 80.6946 14.39 80.5686 14.684C80.4426 14.9733 80.2582 15.2253 80.0156 15.44C79.7729 15.65 79.4719 15.8157 79.1126 15.937C78.7579 16.0537 78.3496 16.112 77.8876 16.112C77.6402 16.112 77.3976 16.0887 77.1596 16.042C76.9262 16 76.6999 15.9393 76.4806 15.86C76.2659 15.7807 76.0652 15.6873 75.8786 15.58C75.6966 15.4727 75.5356 15.356 75.3956 15.23L75.7946 14.572C75.8459 14.4927 75.9066 14.432 75.9766 14.39C76.0466 14.348 76.1352 14.327 76.2426 14.327C76.3499 14.327 76.4502 14.3573 76.5436 14.418C76.6416 14.4787 76.7536 14.544 76.8796 14.614C77.0056 14.684 77.1526 14.7493 77.3206 14.81C77.4932 14.8707 77.7102 14.901 77.9716 14.901C78.1769 14.901 78.3519 14.8777 78.4966 14.831C78.6459 14.7797 78.7672 14.7143 78.8606 14.635C78.9586 14.5557 79.0286 14.4647 79.0706 14.362C79.1172 14.2547 79.1406 14.145 79.1406 14.033C79.1406 13.865 79.0892 13.7273 78.9866 13.62C78.8886 13.5127 78.7556 13.4193 78.5876 13.34C78.4242 13.2607 78.2352 13.1907 78.0206 13.13C77.8106 13.0647 77.5936 12.9947 77.3696 12.92C77.1502 12.8453 76.9332 12.759 76.7186 12.661C76.5086 12.5583 76.3196 12.43 76.1516 12.276C75.9882 12.122 75.8552 11.933 75.7526 11.709C75.6546 11.485 75.6056 11.2143 75.6056 10.897C75.6056 10.603 75.6639 10.323 75.7806 10.057C75.8972 9.791 76.0676 9.56 76.2916 9.364C76.5202 9.16333 76.8026 9.00467 77.1386 8.888C77.4792 8.76667 77.8712 8.706 78.3146 8.706C78.8092 8.706 79.2596 8.78767 79.6656 8.951C80.0716 9.11433 80.4099 9.329 80.6806 9.595L80.2886 10.218ZM86.3999 10.218C86.3532 10.2927 86.3042 10.3463 86.2529 10.379C86.2016 10.407 86.1362 10.421 86.0569 10.421C85.9729 10.421 85.8819 10.3977 85.7839 10.351C85.6906 10.3043 85.5809 10.253 85.4549 10.197C85.3289 10.1363 85.1842 10.0827 85.0209 10.036C84.8622 9.98933 84.6732 9.966 84.4539 9.966C84.1132 9.966 83.8449 10.0383 83.6489 10.183C83.4529 10.3277 83.3549 10.5167 83.3549 10.75C83.3549 10.904 83.4039 11.0347 83.5019 11.142C83.6046 11.2447 83.7376 11.3357 83.9009 11.415C84.0689 11.4943 84.2579 11.5667 84.4679 11.632C84.6779 11.6927 84.8926 11.7603 85.1119 11.835C85.3312 11.9097 85.5459 11.996 85.7559 12.094C85.9659 12.1873 86.1526 12.3087 86.3159 12.458C86.4839 12.6027 86.6169 12.7777 86.7149 12.983C86.8176 13.1883 86.8689 13.4357 86.8689 13.725C86.8689 14.0703 86.8059 14.39 86.6799 14.684C86.5539 14.9733 86.3696 15.2253 86.1269 15.44C85.8842 15.65 85.5832 15.8157 85.2239 15.937C84.8692 16.0537 84.4609 16.112 83.9989 16.112C83.7516 16.112 83.5089 16.0887 83.2709 16.042C83.0376 16 82.8112 15.9393 82.5919 15.86C82.3772 15.7807 82.1766 15.6873 81.9899 15.58C81.8079 15.4727 81.6469 15.356 81.5069 15.23L81.9059 14.572C81.9572 14.4927 82.0179 14.432 82.0879 14.39C82.1579 14.348 82.2466 14.327 82.3539 14.327C82.4612 14.327 82.5616 14.3573 82.6549 14.418C82.7529 14.4787 82.8649 14.544 82.9909 14.614C83.1169 14.684 83.2639 14.7493 83.4319 14.81C83.6046 14.8707 83.8216 14.901 84.0829 14.901C84.2882 14.901 84.4632 14.8777 84.6079 14.831C84.7572 14.7797 84.8786 14.7143 84.9719 14.635C85.0699 14.5557 85.1399 14.4647 85.1819 14.362C85.2286 14.2547 85.2519 14.145 85.2519 14.033C85.2519 13.865 85.2006 13.7273 85.0979 13.62C84.9999 13.5127 84.8669 13.4193 84.6989 13.34C84.5356 13.2607 84.3466 13.1907 84.1319 13.13C83.9219 13.0647 83.7049 12.9947 83.4809 12.92C83.2616 12.8453 83.0446 12.759 82.8299 12.661C82.6199 12.5583 82.4309 12.43 82.2629 12.276C82.0996 12.122 81.9666 11.933 81.8639 11.709C81.7659 11.485 81.7169 11.2143 81.7169 10.897C81.7169 10.603 81.7752 10.323 81.8919 10.057C82.0086 9.791 82.1789 9.56 82.4029 9.364C82.6316 9.16333 82.9139 9.00467 83.2499 8.888C83.5906 8.76667 83.9826 8.706 84.4259 8.706C84.9206 8.706 85.3709 8.78767 85.7769 8.951C86.1829 9.11433 86.5212 9.329 86.7919 9.595L86.3999 10.218ZM88.1152 15.048C88.1152 14.9033 88.1409 14.7657 88.1922 14.635C88.2482 14.5043 88.3229 14.3923 88.4162 14.299C88.5142 14.2057 88.6286 14.131 88.7592 14.075C88.8899 14.019 89.0299 13.991 89.1792 13.991C89.3239 13.991 89.4616 14.019 89.5922 14.075C89.7229 14.131 89.8349 14.2057 89.9282 14.299C90.0216 14.3923 90.0962 14.5043 90.1522 14.635C90.2082 14.7657 90.2362 14.9033 90.2362 15.048C90.2362 15.1973 90.2082 15.3373 90.1522 15.468C90.0962 15.594 90.0216 15.7037 89.9282 15.797C89.8349 15.8903 89.7229 15.9627 89.5922 16.014C89.4616 16.07 89.3239 16.098 89.1792 16.098C89.0299 16.098 88.8899 16.07 88.7592 16.014C88.6286 15.9627 88.5142 15.8903 88.4162 15.797C88.3229 15.7037 88.2482 15.594 88.1922 15.468C88.1409 15.3373 88.1152 15.1973 88.1152 15.048ZM88.1152 10.057C88.1152 9.91233 88.1409 9.77467 88.1922 9.644C88.2482 9.51333 88.3229 9.40133 88.4162 9.308C88.5142 9.21467 88.6286 9.14 88.7592 9.084C88.8899 9.028 89.0299 9 89.1792 9C89.3239 9 89.4616 9.028 89.5922 9.084C89.7229 9.14 89.8349 9.21467 89.9282 9.308C90.0216 9.40133 90.0962 9.51333 90.1522 9.644C90.2082 9.77467 90.2362 9.91233 90.2362 10.057C90.2362 10.2063 90.2082 10.3463 90.1522 10.477C90.0962 10.603 90.0216 10.7127 89.9282 10.806C89.8349 10.8993 89.7229 10.974 89.5922 11.03C89.4616 11.0813 89.3239 11.107 89.1792 11.107C89.0299 11.107 88.8899 11.0813 88.7592 11.03C88.6286 10.974 88.5142 10.8993 88.4162 10.806C88.3229 10.7127 88.2482 10.603 88.1922 10.477C88.1409 10.3463 88.1152 10.2063 88.1152 10.057Z" fill="#787A80"/>
<path d="M41.409 27.959C41.955 27.959 42.465 28.04 42.939 28.202C43.413 28.364 43.821 28.601 44.163 28.913C44.511 29.219 44.784 29.594 44.982 30.038C45.18 30.482 45.279 30.986 45.279 31.55C45.279 32.03 45.207 32.474 45.063 32.882C44.919 33.29 44.724 33.683 44.478 34.061C44.232 34.433 43.947 34.796 43.623 35.15C43.305 35.498 42.966 35.855 42.606 36.221L39.213 39.695C39.453 39.629 39.696 39.578 39.942 39.542C40.188 39.5 40.425 39.479 40.653 39.479H44.973C45.147 39.479 45.285 39.53 45.387 39.632C45.489 39.734 45.54 39.866 45.54 40.028V41H36.936V40.451C36.936 40.337 36.957 40.22 36.999 40.1C37.047 39.98 37.122 39.869 37.224 39.767L41.355 35.618C41.697 35.27 42.009 34.937 42.291 34.619C42.573 34.295 42.813 33.971 43.011 33.647C43.215 33.323 43.371 32.996 43.479 32.666C43.587 32.33 43.641 31.973 43.641 31.595C43.641 31.217 43.581 30.887 43.461 30.605C43.341 30.317 43.176 30.08 42.966 29.894C42.756 29.708 42.51 29.57 42.228 29.48C41.946 29.384 41.643 29.336 41.319 29.336C40.995 29.336 40.695 29.384 40.419 29.48C40.143 29.576 39.897 29.711 39.681 29.885C39.471 30.053 39.291 30.254 39.141 30.488C38.997 30.722 38.895 30.98 38.835 31.262C38.787 31.436 38.715 31.562 38.619 31.64C38.523 31.718 38.397 31.757 38.241 31.757C38.211 31.757 38.178 31.757 38.142 31.757C38.112 31.751 38.076 31.745 38.034 31.739L37.197 31.595C37.281 31.007 37.443 30.488 37.683 30.038C37.923 29.582 38.226 29.201 38.592 28.895C38.964 28.589 39.387 28.358 39.861 28.202C40.341 28.04 40.857 27.959 41.409 27.959ZM54.5684 36.347H56.5214V37.265C56.5214 37.361 56.4914 37.442 56.4314 37.508C56.3774 37.574 56.2904 37.607 56.1704 37.607H54.5684V41H53.1554V37.607H47.4404C47.3204 37.607 47.2154 37.574 47.1254 37.508C47.0414 37.436 46.9874 37.349 46.9634 37.247L46.8014 36.428L53.0744 28.103H54.5684V36.347ZM53.1554 31.028C53.1554 30.872 53.1584 30.704 53.1644 30.524C53.1764 30.344 53.1974 30.158 53.2274 29.966L48.5384 36.347H53.1554V31.028ZM62.7328 33.098C63.2488 33.098 63.7378 33.185 64.1998 33.359C64.6618 33.527 65.0668 33.776 65.4148 34.106C65.7628 34.43 66.0388 34.832 66.2428 35.312C66.4468 35.786 66.5488 36.329 66.5488 36.941C66.5488 37.535 66.4408 38.087 66.2248 38.597C66.0088 39.107 65.7058 39.551 65.3158 39.929C64.9318 40.307 64.4668 40.604 63.9208 40.82C63.3748 41.036 62.7748 41.144 62.1208 41.144C61.4728 41.144 60.8848 41.042 60.3568 40.838C59.8348 40.628 59.3878 40.334 59.0158 39.956C58.6438 39.572 58.3558 39.11 58.1518 38.57C57.9538 38.024 57.8548 37.415 57.8548 36.743C57.8548 36.179 57.9808 35.579 58.2328 34.943C58.4848 34.307 58.8838 33.623 59.4298 32.891L62.6968 28.49C62.7808 28.382 62.8978 28.292 63.0478 28.22C63.1978 28.142 63.3688 28.103 63.5608 28.103H64.9828L60.5098 33.764C60.8158 33.554 61.1548 33.392 61.5268 33.278C61.8988 33.158 62.3008 33.098 62.7328 33.098ZM59.4028 37.022C59.4028 37.436 59.4628 37.814 59.5828 38.156C59.7028 38.498 59.8768 38.792 60.1048 39.038C60.3388 39.284 60.6208 39.476 60.9508 39.614C61.2868 39.746 61.6678 39.812 62.0938 39.812C62.5258 39.812 62.9158 39.743 63.2638 39.605C63.6118 39.467 63.9088 39.275 64.1548 39.029C64.4068 38.783 64.5988 38.492 64.7308 38.156C64.8688 37.82 64.9378 37.454 64.9378 37.058C64.9378 36.638 64.8718 36.26 64.7398 35.924C64.6078 35.582 64.4218 35.294 64.1818 35.06C63.9418 34.82 63.6538 34.637 63.3178 34.511C62.9818 34.385 62.6128 34.322 62.2108 34.322C61.7788 34.322 61.3888 34.397 61.0408 34.547C60.6928 34.691 60.3958 34.889 60.1498 35.141C59.9098 35.387 59.7238 35.675 59.5918 36.005C59.4658 36.329 59.4028 36.668 59.4028 37.022ZM75.4512 36.347H77.4042V37.265C77.4042 37.361 77.3742 37.442 77.3142 37.508C77.2602 37.574 77.1732 37.607 77.0532 37.607H75.4512V41H74.0382V37.607H68.3232C68.2032 37.607 68.0982 37.574 68.0082 37.508C67.9242 37.436 67.8702 37.349 67.8462 37.247L67.6842 36.428L73.9572 28.103H75.4512V36.347ZM74.0382 31.028C74.0382 30.872 74.0412 30.704 74.0472 30.524C74.0592 30.344 74.0802 30.158 74.1102 29.966L69.4212 36.347H74.0382V31.028ZM84.7291 35.618V41H82.9921V28.103H86.6371C87.4531 28.103 88.1581 28.187 88.7521 28.355C89.3461 28.517 89.8351 28.754 90.2191 29.066C90.6091 29.378 90.8971 29.756 91.0831 30.2C91.2691 30.638 91.3621 31.13 91.3621 31.676C91.3621 32.132 91.2901 32.558 91.1461 32.954C91.0021 33.35 90.7921 33.707 90.5161 34.025C90.2461 34.337 89.9131 34.604 89.5171 34.826C89.1271 35.048 88.6831 35.216 88.1851 35.33C88.4011 35.456 88.5931 35.639 88.7611 35.879L92.5231 41H90.9751C90.6571 41 90.4231 40.877 90.2731 40.631L86.9251 36.023C86.8231 35.879 86.7121 35.777 86.5921 35.717C86.4721 35.651 86.2921 35.618 86.0521 35.618H84.7291ZM84.7291 34.349H86.5561C87.0661 34.349 87.5131 34.289 87.8971 34.169C88.2871 34.043 88.6111 33.869 88.8691 33.647C89.1331 33.419 89.3311 33.149 89.4631 32.837C89.5951 32.525 89.6611 32.18 89.6611 31.802C89.6611 31.034 89.4061 30.455 88.8961 30.065C88.3921 29.675 87.6391 29.48 86.6371 29.48H84.7291V34.349ZM97.8341 31.739C98.5001 31.739 99.1001 31.85 99.6341 32.072C100.174 32.294 100.63 32.609 101.002 33.017C101.38 33.425 101.668 33.92 101.866 34.502C102.07 35.078 102.172 35.723 102.172 36.437C102.172 37.157 102.07 37.805 101.866 38.381C101.668 38.957 101.38 39.449 101.002 39.857C100.63 40.265 100.174 40.58 99.6341 40.802C99.1001 41.018 98.5001 41.126 97.8341 41.126C97.1681 41.126 96.5651 41.018 96.0251 40.802C95.4911 40.58 95.0351 40.265 94.6571 39.857C94.2791 39.449 93.9881 38.957 93.7841 38.381C93.5801 37.805 93.4781 37.157 93.4781 36.437C93.4781 35.723 93.5801 35.078 93.7841 34.502C93.9881 33.92 94.2791 33.425 94.6571 33.017C95.0351 32.609 95.4911 32.294 96.0251 32.072C96.5651 31.85 97.1681 31.739 97.8341 31.739ZM97.8341 39.875C98.7341 39.875 99.4061 39.575 99.8501 38.975C100.294 38.369 100.516 37.526 100.516 36.446C100.516 35.36 100.294 34.514 99.8501 33.908C99.4061 33.302 98.7341 32.999 97.8341 32.999C97.3781 32.999 96.9821 33.077 96.6461 33.233C96.3101 33.389 96.0281 33.614 95.8001 33.908C95.5781 34.202 95.4101 34.565 95.2961 34.997C95.1881 35.423 95.1341 35.906 95.1341 36.446C95.1341 36.986 95.1881 37.469 95.2961 37.895C95.4101 38.321 95.5781 38.681 95.8001 38.975C96.0281 39.263 96.3101 39.485 96.6461 39.641C96.9821 39.797 97.3781 39.875 97.8341 39.875ZM106.591 43.691C106.537 43.811 106.468 43.907 106.384 43.979C106.306 44.051 106.183 44.087 106.015 44.087H104.827L106.492 40.469L102.73 31.883H104.116C104.254 31.883 104.362 31.919 104.44 31.991C104.518 32.057 104.575 32.132 104.611 32.216L107.05 37.958C107.104 38.09 107.149 38.222 107.185 38.354C107.227 38.486 107.263 38.621 107.293 38.759C107.335 38.621 107.377 38.486 107.419 38.354C107.461 38.222 107.509 38.087 107.563 37.949L109.93 32.216C109.966 32.12 110.026 32.042 110.11 31.982C110.2 31.916 110.296 31.883 110.398 31.883H111.676L106.591 43.691ZM119.824 41H119.113C118.957 41 118.831 40.976 118.735 40.928C118.639 40.88 118.576 40.778 118.546 40.622L118.366 39.776C118.126 39.992 117.892 40.187 117.664 40.361C117.436 40.529 117.196 40.673 116.944 40.793C116.692 40.907 116.422 40.994 116.134 41.054C115.852 41.114 115.537 41.144 115.189 41.144C114.835 41.144 114.502 41.096 114.19 41C113.884 40.898 113.617 40.748 113.389 40.55C113.161 40.352 112.978 40.103 112.84 39.803C112.708 39.497 112.642 39.137 112.642 38.723C112.642 38.363 112.741 38.018 112.939 37.688C113.137 37.352 113.455 37.055 113.893 36.797C114.337 36.539 114.916 36.329 115.63 36.167C116.344 35.999 117.217 35.903 118.249 35.879V35.168C118.249 34.46 118.096 33.926 117.79 33.566C117.49 33.2 117.043 33.017 116.449 33.017C116.059 33.017 115.729 33.068 115.459 33.17C115.195 33.266 114.964 33.377 114.766 33.503C114.574 33.623 114.406 33.734 114.262 33.836C114.124 33.932 113.986 33.98 113.848 33.98C113.74 33.98 113.644 33.953 113.56 33.899C113.482 33.839 113.419 33.767 113.371 33.683L113.083 33.17C113.587 32.684 114.13 32.321 114.712 32.081C115.294 31.841 115.939 31.721 116.647 31.721C117.157 31.721 117.61 31.805 118.006 31.973C118.402 32.141 118.735 32.375 119.005 32.675C119.275 32.975 119.479 33.338 119.617 33.764C119.755 34.19 119.824 34.658 119.824 35.168V41ZM115.666 40.019C115.948 40.019 116.206 39.992 116.44 39.938C116.674 39.878 116.893 39.797 117.097 39.695C117.307 39.587 117.505 39.458 117.691 39.308C117.883 39.158 118.069 38.987 118.249 38.795V36.896C117.511 36.92 116.884 36.98 116.368 37.076C115.852 37.166 115.432 37.286 115.108 37.436C114.784 37.586 114.547 37.763 114.397 37.967C114.253 38.171 114.181 38.399 114.181 38.651C114.181 38.891 114.22 39.098 114.298 39.272C114.376 39.446 114.481 39.59 114.613 39.704C114.745 39.812 114.901 39.893 115.081 39.947C115.261 39.995 115.456 40.019 115.666 40.019ZM124.034 27.743V41H122.432V27.743H124.034ZM132.335 39.533H137.915V41H130.589V28.103H132.335V39.533ZM139.584 41V31.883H140.538C140.766 31.883 140.91 31.994 140.97 32.216L141.096 33.206C141.492 32.768 141.933 32.414 142.419 32.144C142.911 31.874 143.478 31.739 144.12 31.739C144.618 31.739 145.056 31.823 145.434 31.991C145.818 32.153 146.136 32.387 146.388 32.693C146.646 32.993 146.841 33.356 146.973 33.782C147.105 34.208 147.171 34.679 147.171 35.195V41H145.569V35.195C145.569 34.505 145.41 33.971 145.092 33.593C144.78 33.209 144.3 33.017 143.652 33.017C143.178 33.017 142.734 33.131 142.32 33.359C141.912 33.587 141.534 33.896 141.186 34.286V41H139.584ZM149.063 40.01C149.063 39.854 149.09 39.707 149.144 39.569C149.204 39.431 149.282 39.311 149.378 39.209C149.48 39.107 149.6 39.026 149.738 38.966C149.876 38.906 150.023 38.876 150.179 38.876C150.335 38.876 150.482 38.906 150.62 38.966C150.758 39.026 150.878 39.107 150.98 39.209C151.082 39.311 151.16 39.431 151.214 39.569C151.274 39.707 151.304 39.854 151.304 40.01C151.304 40.172 151.274 40.322 151.214 40.46C151.16 40.592 151.082 40.709 150.98 40.811C150.878 40.913 150.758 40.991 150.62 41.045C150.482 41.105 150.335 41.135 150.179 41.135C150.023 41.135 149.876 41.105 149.738 41.045C149.6 40.991 149.48 40.913 149.378 40.811C149.282 40.709 149.204 40.592 149.144 40.46C149.09 40.322 149.063 40.172 149.063 40.01ZM163.477 36.338C163.561 36.482 163.633 36.635 163.693 36.797C163.759 36.953 163.822 37.112 163.882 37.274C163.942 37.106 164.005 36.947 164.071 36.797C164.137 36.641 164.212 36.485 164.296 36.329L168.661 28.4C168.739 28.262 168.82 28.178 168.904 28.148C168.988 28.118 169.108 28.103 169.264 28.103H170.551V41H169.021V31.523C169.021 31.397 169.024 31.262 169.03 31.118C169.036 30.974 169.045 30.827 169.057 30.677L164.638 38.741C164.488 39.011 164.278 39.146 164.008 39.146H163.756C163.486 39.146 163.276 39.011 163.126 38.741L158.608 30.65C158.626 30.806 158.638 30.959 158.644 31.109C158.656 31.259 158.662 31.397 158.662 31.523V41H157.132V28.103H158.419C158.575 28.103 158.695 28.118 158.779 28.148C158.863 28.178 158.944 28.262 159.022 28.4L163.477 36.338ZM177.048 31.739C177.594 31.739 178.098 31.832 178.56 32.018C179.022 32.198 179.421 32.462 179.757 32.81C180.093 33.152 180.354 33.578 180.54 34.088C180.732 34.592 180.828 35.168 180.828 35.816C180.828 36.068 180.801 36.236 180.747 36.32C180.693 36.404 180.591 36.446 180.441 36.446H174.375C174.387 37.022 174.465 37.523 174.609 37.949C174.753 38.375 174.951 38.732 175.203 39.02C175.455 39.302 175.755 39.515 176.103 39.659C176.451 39.797 176.841 39.866 177.273 39.866C177.675 39.866 178.02 39.821 178.308 39.731C178.602 39.635 178.854 39.533 179.064 39.425C179.274 39.317 179.448 39.218 179.586 39.128C179.73 39.032 179.853 38.984 179.955 38.984C180.087 38.984 180.189 39.035 180.261 39.137L180.711 39.722C180.513 39.962 180.276 40.172 180 40.352C179.724 40.526 179.427 40.67 179.109 40.784C178.797 40.898 178.473 40.982 178.137 41.036C177.801 41.096 177.468 41.126 177.138 41.126C176.508 41.126 175.926 41.021 175.392 40.811C174.864 40.595 174.405 40.283 174.015 39.875C173.631 39.461 173.331 38.951 173.115 38.345C172.899 37.739 172.791 37.043 172.791 36.257C172.791 35.621 172.887 35.027 173.079 34.475C173.277 33.923 173.559 33.446 173.925 33.044C174.291 32.636 174.738 32.318 175.266 32.09C175.794 31.856 176.388 31.739 177.048 31.739ZM177.084 32.918C176.31 32.918 175.701 33.143 175.257 33.593C174.813 34.037 174.537 34.655 174.429 35.447H179.388C179.388 35.075 179.337 34.736 179.235 34.43C179.133 34.118 178.983 33.851 178.785 33.629C178.587 33.401 178.344 33.227 178.056 33.107C177.774 32.981 177.45 32.918 177.084 32.918ZM188.098 33.386C188.026 33.518 187.915 33.584 187.765 33.584C187.675 33.584 187.573 33.551 187.459 33.485C187.345 33.419 187.204 33.347 187.036 33.269C186.874 33.185 186.679 33.11 186.451 33.044C186.223 32.972 185.953 32.936 185.641 32.936C185.371 32.936 185.128 32.972 184.912 33.044C184.696 33.11 184.51 33.203 184.354 33.323C184.204 33.443 184.087 33.584 184.003 33.746C183.925 33.902 183.886 34.073 183.886 34.259C183.886 34.493 183.952 34.688 184.084 34.844C184.222 35 184.402 35.135 184.624 35.249C184.846 35.363 185.098 35.465 185.38 35.555C185.662 35.639 185.95 35.732 186.244 35.834C186.544 35.93 186.835 36.038 187.117 36.158C187.399 36.278 187.651 36.428 187.873 36.608C188.095 36.788 188.272 37.01 188.404 37.274C188.542 37.532 188.611 37.844 188.611 38.21C188.611 38.63 188.536 39.02 188.386 39.38C188.236 39.734 188.014 40.043 187.72 40.307C187.426 40.565 187.066 40.769 186.64 40.919C186.214 41.069 185.722 41.144 185.164 41.144C184.528 41.144 183.952 41.042 183.436 40.838C182.92 40.628 182.482 40.361 182.122 40.037L182.5 39.425C182.548 39.347 182.605 39.287 182.671 39.245C182.737 39.203 182.824 39.182 182.932 39.182C183.04 39.182 183.154 39.224 183.274 39.308C183.394 39.392 183.538 39.485 183.706 39.587C183.88 39.689 184.087 39.782 184.327 39.866C184.573 39.95 184.879 39.992 185.245 39.992C185.557 39.992 185.83 39.953 186.064 39.875C186.298 39.791 186.493 39.68 186.649 39.542C186.805 39.404 186.919 39.245 186.991 39.065C187.069 38.885 187.108 38.693 187.108 38.489C187.108 38.237 187.039 38.03 186.901 37.868C186.769 37.7 186.592 37.559 186.37 37.445C186.148 37.325 185.893 37.223 185.605 37.139C185.323 37.049 185.032 36.956 184.732 36.86C184.438 36.764 184.147 36.656 183.859 36.536C183.577 36.41 183.325 36.254 183.103 36.068C182.881 35.882 182.701 35.654 182.563 35.384C182.431 35.108 182.365 34.775 182.365 34.385C182.365 34.037 182.437 33.704 182.581 33.386C182.725 33.062 182.935 32.78 183.211 32.54C183.487 32.294 183.826 32.099 184.228 31.955C184.63 31.811 185.089 31.739 185.605 31.739C186.205 31.739 186.742 31.835 187.216 32.027C187.696 32.213 188.11 32.471 188.458 32.801L188.098 33.386ZM197.379 41H196.668C196.512 41 196.386 40.976 196.29 40.928C196.194 40.88 196.131 40.778 196.101 40.622L195.921 39.776C195.681 39.992 195.447 40.187 195.219 40.361C194.991 40.529 194.751 40.673 194.499 40.793C194.247 40.907 193.977 40.994 193.689 41.054C193.407 41.114 193.092 41.144 192.744 41.144C192.39 41.144 192.057 41.096 191.745 41C191.439 40.898 191.172 40.748 190.944 40.55C190.716 40.352 190.533 40.103 190.395 39.803C190.263 39.497 190.197 39.137 190.197 38.723C190.197 38.363 190.296 38.018 190.494 37.688C190.692 37.352 191.01 37.055 191.448 36.797C191.892 36.539 192.471 36.329 193.185 36.167C193.899 35.999 194.772 35.903 195.804 35.879V35.168C195.804 34.46 195.651 33.926 195.345 33.566C195.045 33.2 194.598 33.017 194.004 33.017C193.614 33.017 193.284 33.068 193.014 33.17C192.75 33.266 192.519 33.377 192.321 33.503C192.129 33.623 191.961 33.734 191.817 33.836C191.679 33.932 191.541 33.98 191.403 33.98C191.295 33.98 191.199 33.953 191.115 33.899C191.037 33.839 190.974 33.767 190.926 33.683L190.638 33.17C191.142 32.684 191.685 32.321 192.267 32.081C192.849 31.841 193.494 31.721 194.202 31.721C194.712 31.721 195.165 31.805 195.561 31.973C195.957 32.141 196.29 32.375 196.56 32.675C196.83 32.975 197.034 33.338 197.172 33.764C197.31 34.19 197.379 34.658 197.379 35.168V41ZM193.221 40.019C193.503 40.019 193.761 39.992 193.995 39.938C194.229 39.878 194.448 39.797 194.652 39.695C194.862 39.587 195.06 39.458 195.246 39.308C195.438 39.158 195.624 38.987 195.804 38.795V36.896C195.066 36.92 194.439 36.98 193.923 37.076C193.407 37.166 192.987 37.286 192.663 37.436C192.339 37.586 192.102 37.763 191.952 37.967C191.808 38.171 191.736 38.399 191.736 38.651C191.736 38.891 191.775 39.098 191.853 39.272C191.931 39.446 192.036 39.59 192.168 39.704C192.3 39.812 192.456 39.893 192.636 39.947C192.816 39.995 193.011 40.019 193.221 40.019ZM199.338 39.893C199.338 39.755 199.362 39.626 199.41 39.506C199.464 39.38 199.536 39.272 199.626 39.182C199.722 39.086 199.836 39.011 199.968 38.957C200.1 38.903 200.244 38.876 200.4 38.876C200.58 38.876 200.739 38.909 200.877 38.975C201.021 39.041 201.138 39.134 201.228 39.254C201.324 39.368 201.396 39.503 201.444 39.659C201.492 39.809 201.516 39.974 201.516 40.154C201.516 40.424 201.477 40.706 201.399 41C201.321 41.288 201.21 41.573 201.066 41.855C200.922 42.143 200.742 42.422 200.526 42.692C200.316 42.962 200.076 43.211 199.806 43.439L199.536 43.178C199.458 43.106 199.419 43.022 199.419 42.926C199.419 42.848 199.461 42.767 199.545 42.683C199.605 42.617 199.68 42.527 199.77 42.413C199.866 42.305 199.962 42.179 200.058 42.035C200.154 41.891 200.241 41.732 200.319 41.558C200.403 41.384 200.463 41.198 200.499 41H200.382C200.226 41 200.085 40.973 199.959 40.919C199.833 40.865 199.722 40.79 199.626 40.694C199.536 40.592 199.464 40.475 199.41 40.343C199.362 40.205 199.338 40.055 199.338 39.893ZM208.253 28.103C208.409 28.103 208.523 28.124 208.595 28.166C208.673 28.202 208.76 28.28 208.856 28.4L216.326 38.12C216.308 37.964 216.296 37.814 216.29 37.67C216.284 37.52 216.281 37.376 216.281 37.238V28.103H217.811V41H216.929C216.791 41 216.674 40.976 216.578 40.928C216.488 40.88 216.398 40.799 216.308 40.685L208.847 30.974C208.859 31.124 208.868 31.271 208.874 31.415C208.88 31.559 208.883 31.691 208.883 31.811V41H207.353V28.103H208.253ZM224.316 31.739C224.862 31.739 225.366 31.832 225.828 32.018C226.29 32.198 226.689 32.462 227.025 32.81C227.361 33.152 227.622 33.578 227.808 34.088C228 34.592 228.096 35.168 228.096 35.816C228.096 36.068 228.069 36.236 228.015 36.32C227.961 36.404 227.859 36.446 227.709 36.446H221.643C221.655 37.022 221.733 37.523 221.877 37.949C222.021 38.375 222.219 38.732 222.471 39.02C222.723 39.302 223.023 39.515 223.371 39.659C223.719 39.797 224.109 39.866 224.541 39.866C224.943 39.866 225.288 39.821 225.576 39.731C225.87 39.635 226.122 39.533 226.332 39.425C226.542 39.317 226.716 39.218 226.854 39.128C226.998 39.032 227.121 38.984 227.223 38.984C227.355 38.984 227.457 39.035 227.529 39.137L227.979 39.722C227.781 39.962 227.544 40.172 227.268 40.352C226.992 40.526 226.695 40.67 226.377 40.784C226.065 40.898 225.741 40.982 225.405 41.036C225.069 41.096 224.736 41.126 224.406 41.126C223.776 41.126 223.194 41.021 222.66 40.811C222.132 40.595 221.673 40.283 221.283 39.875C220.899 39.461 220.599 38.951 220.383 38.345C220.167 37.739 220.059 37.043 220.059 36.257C220.059 35.621 220.155 35.027 220.347 34.475C220.545 33.923 220.827 33.446 221.193 33.044C221.559 32.636 222.006 32.318 222.534 32.09C223.062 31.856 223.656 31.739 224.316 31.739ZM224.352 32.918C223.578 32.918 222.969 33.143 222.525 33.593C222.081 34.037 221.805 34.655 221.697 35.447H226.656C226.656 35.075 226.605 34.736 226.503 34.43C226.401 34.118 226.251 33.851 226.053 33.629C225.855 33.401 225.612 33.227 225.324 33.107C225.042 32.981 224.718 32.918 224.352 32.918ZM228.958 31.883H230.218C230.35 31.883 230.458 31.916 230.542 31.982C230.626 32.048 230.683 32.126 230.713 32.216L232.459 38.084C232.507 38.3 232.552 38.51 232.594 38.714C232.636 38.912 232.672 39.113 232.702 39.317C232.75 39.113 232.804 38.912 232.864 38.714C232.924 38.51 232.987 38.3 233.053 38.084L234.979 32.18C235.009 32.09 235.06 32.015 235.132 31.955C235.21 31.895 235.306 31.865 235.42 31.865H236.113C236.233 31.865 236.332 31.895 236.41 31.955C236.488 32.015 236.542 32.09 236.572 32.18L238.453 38.084C238.519 38.294 238.576 38.501 238.624 38.705C238.678 38.909 238.729 39.11 238.777 39.308C238.807 39.11 238.846 38.903 238.894 38.687C238.942 38.471 238.993 38.27 239.047 38.084L240.829 32.216C240.859 32.12 240.916 32.042 241 31.982C241.084 31.916 241.183 31.883 241.297 31.883H242.503L239.551 41H238.282C238.126 41 238.018 40.898 237.958 40.694L235.942 34.511C235.894 34.373 235.855 34.235 235.825 34.097C235.795 33.953 235.765 33.812 235.735 33.674C235.705 33.812 235.675 33.953 235.645 34.097C235.615 34.241 235.576 34.382 235.528 34.52L233.485 40.694C233.419 40.898 233.296 41 233.116 41H231.91L228.958 31.883ZM252.511 36.545C252.511 37.265 252.421 37.91 252.241 38.48C252.067 39.05 251.806 39.533 251.458 39.929C251.116 40.319 250.693 40.619 250.189 40.829C249.685 41.039 249.106 41.144 248.452 41.144C247.87 41.144 247.264 41.06 246.634 40.892C246.646 40.718 246.661 40.547 246.679 40.379C246.697 40.205 246.715 40.034 246.733 39.866C246.745 39.764 246.781 39.683 246.841 39.623C246.907 39.557 247.003 39.524 247.129 39.524C247.237 39.524 247.381 39.551 247.561 39.605C247.741 39.659 247.981 39.686 248.281 39.686C248.677 39.686 249.028 39.626 249.334 39.506C249.646 39.386 249.907 39.2 250.117 38.948C250.333 38.696 250.495 38.375 250.603 37.985C250.717 37.589 250.774 37.121 250.774 36.581V28.103H252.511V36.545ZM259.015 31.739C259.561 31.739 260.065 31.832 260.527 32.018C260.989 32.198 261.388 32.462 261.724 32.81C262.06 33.152 262.321 33.578 262.507 34.088C262.699 34.592 262.795 35.168 262.795 35.816C262.795 36.068 262.768 36.236 262.714 36.32C262.66 36.404 262.558 36.446 262.408 36.446H256.342C256.354 37.022 256.432 37.523 256.576 37.949C256.72 38.375 256.918 38.732 257.17 39.02C257.422 39.302 257.722 39.515 258.07 39.659C258.418 39.797 258.808 39.866 259.24 39.866C259.642 39.866 259.987 39.821 260.275 39.731C260.569 39.635 260.821 39.533 261.031 39.425C261.241 39.317 261.415 39.218 261.553 39.128C261.697 39.032 261.82 38.984 261.922 38.984C262.054 38.984 262.156 39.035 262.228 39.137L262.678 39.722C262.48 39.962 262.243 40.172 261.967 40.352C261.691 40.526 261.394 40.67 261.076 40.784C260.764 40.898 260.44 40.982 260.104 41.036C259.768 41.096 259.435 41.126 259.105 41.126C258.475 41.126 257.893 41.021 257.359 40.811C256.831 40.595 256.372 40.283 255.982 39.875C255.598 39.461 255.298 38.951 255.082 38.345C254.866 37.739 254.758 37.043 254.758 36.257C254.758 35.621 254.854 35.027 255.046 34.475C255.244 33.923 255.526 33.446 255.892 33.044C256.258 32.636 256.705 32.318 257.233 32.09C257.761 31.856 258.355 31.739 259.015 31.739ZM259.051 32.918C258.277 32.918 257.668 33.143 257.224 33.593C256.78 34.037 256.504 34.655 256.396 35.447H261.355C261.355 35.075 261.304 34.736 261.202 34.43C261.1 34.118 260.95 33.851 260.752 33.629C260.554 33.401 260.311 33.227 260.023 33.107C259.741 32.981 259.417 32.918 259.051 32.918ZM264.845 41V31.883H265.763C265.937 31.883 266.057 31.916 266.123 31.982C266.189 32.048 266.234 32.162 266.258 32.324L266.366 33.746C266.678 33.11 267.062 32.615 267.518 32.261C267.98 31.901 268.52 31.721 269.138 31.721C269.39 31.721 269.618 31.751 269.822 31.811C270.026 31.865 270.215 31.943 270.389 32.045L270.182 33.242C270.14 33.392 270.047 33.467 269.903 33.467C269.819 33.467 269.69 33.44 269.516 33.386C269.342 33.326 269.099 33.296 268.787 33.296C268.229 33.296 267.761 33.458 267.383 33.782C267.011 34.106 266.699 34.577 266.447 35.195V41H264.845ZM277.325 33.386C277.253 33.518 277.142 33.584 276.992 33.584C276.902 33.584 276.8 33.551 276.686 33.485C276.572 33.419 276.431 33.347 276.263 33.269C276.101 33.185 275.906 33.11 275.678 33.044C275.45 32.972 275.18 32.936 274.868 32.936C274.598 32.936 274.355 32.972 274.139 33.044C273.923 33.11 273.737 33.203 273.581 33.323C273.431 33.443 273.314 33.584 273.23 33.746C273.152 33.902 273.113 34.073 273.113 34.259C273.113 34.493 273.179 34.688 273.311 34.844C273.449 35 273.629 35.135 273.851 35.249C274.073 35.363 274.325 35.465 274.607 35.555C274.889 35.639 275.177 35.732 275.471 35.834C275.771 35.93 276.062 36.038 276.344 36.158C276.626 36.278 276.878 36.428 277.1 36.608C277.322 36.788 277.499 37.01 277.631 37.274C277.769 37.532 277.838 37.844 277.838 38.21C277.838 38.63 277.763 39.02 277.613 39.38C277.463 39.734 277.241 40.043 276.947 40.307C276.653 40.565 276.293 40.769 275.867 40.919C275.441 41.069 274.949 41.144 274.391 41.144C273.755 41.144 273.179 41.042 272.663 40.838C272.147 40.628 271.709 40.361 271.349 40.037L271.727 39.425C271.775 39.347 271.832 39.287 271.898 39.245C271.964 39.203 272.051 39.182 272.159 39.182C272.267 39.182 272.381 39.224 272.501 39.308C272.621 39.392 272.765 39.485 272.933 39.587C273.107 39.689 273.314 39.782 273.554 39.866C273.8 39.95 274.106 39.992 274.472 39.992C274.784 39.992 275.057 39.953 275.291 39.875C275.525 39.791 275.72 39.68 275.876 39.542C276.032 39.404 276.146 39.245 276.218 39.065C276.296 38.885 276.335 38.693 276.335 38.489C276.335 38.237 276.266 38.03 276.128 37.868C275.996 37.7 275.819 37.559 275.597 37.445C275.375 37.325 275.12 37.223 274.832 37.139C274.55 37.049 274.259 36.956 273.959 36.86C273.665 36.764 273.374 36.656 273.086 36.536C272.804 36.41 272.552 36.254 272.33 36.068C272.108 35.882 271.928 35.654 271.79 35.384C271.658 35.108 271.592 34.775 271.592 34.385C271.592 34.037 271.664 33.704 271.808 33.386C271.952 33.062 272.162 32.78 272.438 32.54C272.714 32.294 273.053 32.099 273.455 31.955C273.857 31.811 274.316 31.739 274.832 31.739C275.432 31.739 275.969 31.835 276.443 32.027C276.923 32.213 277.337 32.471 277.685 32.801L277.325 33.386ZM283.519 31.739C284.065 31.739 284.569 31.832 285.031 32.018C285.493 32.198 285.892 32.462 286.228 32.81C286.564 33.152 286.825 33.578 287.011 34.088C287.203 34.592 287.299 35.168 287.299 35.816C287.299 36.068 287.272 36.236 287.218 36.32C287.164 36.404 287.062 36.446 286.912 36.446H280.846C280.858 37.022 280.936 37.523 281.08 37.949C281.224 38.375 281.422 38.732 281.674 39.02C281.926 39.302 282.226 39.515 282.574 39.659C282.922 39.797 283.312 39.866 283.744 39.866C284.146 39.866 284.491 39.821 284.779 39.731C285.073 39.635 285.325 39.533 285.535 39.425C285.745 39.317 285.919 39.218 286.057 39.128C286.201 39.032 286.324 38.984 286.426 38.984C286.558 38.984 286.66 39.035 286.732 39.137L287.182 39.722C286.984 39.962 286.747 40.172 286.471 40.352C286.195 40.526 285.898 40.67 285.58 40.784C285.268 40.898 284.944 40.982 284.608 41.036C284.272 41.096 283.939 41.126 283.609 41.126C282.979 41.126 282.397 41.021 281.863 40.811C281.335 40.595 280.876 40.283 280.486 39.875C280.102 39.461 279.802 38.951 279.586 38.345C279.37 37.739 279.262 37.043 279.262 36.257C279.262 35.621 279.358 35.027 279.55 34.475C279.748 33.923 280.03 33.446 280.396 33.044C280.762 32.636 281.209 32.318 281.737 32.09C282.265 31.856 282.859 31.739 283.519 31.739ZM283.555 32.918C282.781 32.918 282.172 33.143 281.728 33.593C281.284 34.037 281.008 34.655 280.9 35.447H285.859C285.859 35.075 285.808 34.736 285.706 34.43C285.604 34.118 285.454 33.851 285.256 33.629C285.058 33.401 284.815 33.227 284.527 33.107C284.245 32.981 283.921 32.918 283.555 32.918ZM291.794 43.691C291.74 43.811 291.671 43.907 291.587 43.979C291.509 44.051 291.386 44.087 291.218 44.087H290.03L291.695 40.469L287.933 31.883H289.319C289.457 31.883 289.565 31.919 289.643 31.991C289.721 32.057 289.778 32.132 289.814 32.216L292.253 37.958C292.307 38.09 292.352 38.222 292.388 38.354C292.43 38.486 292.466 38.621 292.496 38.759C292.538 38.621 292.58 38.486 292.622 38.354C292.664 38.222 292.712 38.087 292.766 37.949L295.133 32.216C295.169 32.12 295.229 32.042 295.313 31.982C295.403 31.916 295.499 31.883 295.601 31.883H296.879L291.794 43.691ZM308.625 36.347H310.578V37.265C310.578 37.361 310.548 37.442 310.488 37.508C310.434 37.574 310.347 37.607 310.227 37.607H308.625V41H307.212V37.607H301.497C301.377 37.607 301.272 37.574 301.182 37.508C301.098 37.436 301.044 37.349 301.02 37.247L300.858 36.428L307.131 28.103H308.625V36.347ZM307.212 31.028C307.212 30.872 307.215 30.704 307.221 30.524C307.233 30.344 307.254 30.158 307.284 29.966L302.595 36.347H307.212V31.028ZM319.741 28.805C319.741 29.033 319.669 29.222 319.525 29.372C319.381 29.516 319.138 29.588 318.796 29.588H314.746L314.152 32.972C314.824 32.828 315.445 32.756 316.015 32.756C316.687 32.756 317.278 32.855 317.788 33.053C318.304 33.251 318.736 33.524 319.084 33.872C319.432 34.22 319.693 34.631 319.867 35.105C320.047 35.579 320.137 36.095 320.137 36.653C320.137 37.337 320.017 37.955 319.777 38.507C319.537 39.059 319.207 39.533 318.787 39.929C318.373 40.319 317.884 40.619 317.32 40.829C316.756 41.039 316.147 41.144 315.493 41.144C315.115 41.144 314.752 41.105 314.404 41.027C314.056 40.955 313.732 40.856 313.432 40.73C313.132 40.604 312.853 40.46 312.595 40.298C312.337 40.136 312.109 39.965 311.911 39.785L312.397 39.101C312.505 38.945 312.649 38.867 312.829 38.867C312.943 38.867 313.075 38.915 313.225 39.011C313.381 39.101 313.567 39.203 313.783 39.317C313.999 39.431 314.251 39.536 314.539 39.632C314.833 39.722 315.181 39.767 315.583 39.767C316.033 39.767 316.438 39.695 316.798 39.551C317.158 39.407 317.464 39.203 317.716 38.939C317.974 38.669 318.172 38.348 318.31 37.976C318.448 37.604 318.517 37.187 318.517 36.725C318.517 36.323 318.457 35.96 318.337 35.636C318.223 35.312 318.046 35.036 317.806 34.808C317.572 34.58 317.278 34.403 316.924 34.277C316.57 34.151 316.156 34.088 315.682 34.088C315.358 34.088 315.022 34.115 314.674 34.169C314.326 34.223 313.966 34.31 313.594 34.43L312.586 34.133L313.63 28.103H319.741V28.805ZM329.508 36.347H331.461V37.265C331.461 37.361 331.431 37.442 331.371 37.508C331.317 37.574 331.23 37.607 331.11 37.607H329.508V41H328.095V37.607H322.38C322.26 37.607 322.155 37.574 322.065 37.508C321.981 37.436 321.927 37.349 321.903 37.247L321.741 36.428L328.014 28.103H329.508V36.347ZM328.095 31.028C328.095 30.872 328.098 30.704 328.104 30.524C328.116 30.344 328.137 30.158 328.167 29.966L323.478 36.347H328.095V31.028ZM337.672 33.098C338.188 33.098 338.677 33.185 339.139 33.359C339.601 33.527 340.006 33.776 340.354 34.106C340.702 34.43 340.978 34.832 341.182 35.312C341.386 35.786 341.488 36.329 341.488 36.941C341.488 37.535 341.38 38.087 341.164 38.597C340.948 39.107 340.645 39.551 340.255 39.929C339.871 40.307 339.406 40.604 338.86 40.82C338.314 41.036 337.714 41.144 337.06 41.144C336.412 41.144 335.824 41.042 335.296 40.838C334.774 40.628 334.327 40.334 333.955 39.956C333.583 39.572 333.295 39.11 333.091 38.57C332.893 38.024 332.794 37.415 332.794 36.743C332.794 36.179 332.92 35.579 333.172 34.943C333.424 34.307 333.823 33.623 334.369 32.891L337.636 28.49C337.72 28.382 337.837 28.292 337.987 28.22C338.137 28.142 338.308 28.103 338.5 28.103H339.922L335.449 33.764C335.755 33.554 336.094 33.392 336.466 33.278C336.838 33.158 337.24 33.098 337.672 33.098ZM334.342 37.022C334.342 37.436 334.402 37.814 334.522 38.156C334.642 38.498 334.816 38.792 335.044 39.038C335.278 39.284 335.56 39.476 335.89 39.614C336.226 39.746 336.607 39.812 337.033 39.812C337.465 39.812 337.855 39.743 338.203 39.605C338.551 39.467 338.848 39.275 339.094 39.029C339.346 38.783 339.538 38.492 339.67 38.156C339.808 37.82 339.877 37.454 339.877 37.058C339.877 36.638 339.811 36.26 339.679 35.924C339.547 35.582 339.361 35.294 339.121 35.06C338.881 34.82 338.593 34.637 338.257 34.511C337.921 34.385 337.552 34.322 337.15 34.322C336.718 34.322 336.328 34.397 335.98 34.547C335.632 34.691 335.335 34.889 335.089 35.141C334.849 35.387 334.663 35.675 334.531 36.005C334.405 36.329 334.342 36.668 334.342 37.022ZM347.844 27.959C348.39 27.959 348.894 28.037 349.356 28.193C349.818 28.349 350.214 28.571 350.544 28.859C350.88 29.147 351.141 29.495 351.327 29.903C351.513 30.311 351.606 30.764 351.606 31.262C351.606 31.67 351.552 32.036 351.444 32.36C351.342 32.678 351.192 32.96 350.994 33.206C350.802 33.446 350.568 33.65 350.292 33.818C350.016 33.986 349.707 34.121 349.365 34.223C350.205 34.445 350.835 34.817 351.255 35.339C351.681 35.861 351.894 36.515 351.894 37.301C351.894 37.895 351.78 38.429 351.552 38.903C351.33 39.377 351.024 39.782 350.634 40.118C350.244 40.448 349.788 40.703 349.266 40.883C348.75 41.057 348.195 41.144 347.601 41.144C346.917 41.144 346.332 41.06 345.846 40.892C345.36 40.718 344.949 40.481 344.613 40.181C344.277 39.881 344.001 39.527 343.785 39.119C343.569 38.705 343.386 38.258 343.236 37.778L343.92 37.49C344.046 37.436 344.172 37.409 344.298 37.409C344.418 37.409 344.523 37.436 344.613 37.49C344.709 37.538 344.781 37.616 344.829 37.724C344.841 37.748 344.853 37.775 344.865 37.805C344.877 37.829 344.889 37.856 344.901 37.886C344.985 38.06 345.087 38.258 345.207 38.48C345.327 38.696 345.489 38.9 345.693 39.092C345.897 39.284 346.149 39.446 346.449 39.578C346.755 39.71 347.133 39.776 347.583 39.776C348.033 39.776 348.426 39.704 348.762 39.56C349.104 39.41 349.386 39.218 349.608 38.984C349.836 38.75 350.007 38.489 350.121 38.201C350.235 37.913 350.292 37.628 350.292 37.346C350.292 36.998 350.244 36.68 350.148 36.392C350.058 36.104 349.89 35.855 349.644 35.645C349.404 35.435 349.068 35.27 348.636 35.15C348.21 35.03 347.661 34.97 346.989 34.97V33.809C347.535 33.803 348 33.743 348.384 33.629C348.774 33.515 349.092 33.359 349.338 33.161C349.584 32.963 349.761 32.726 349.869 32.45C349.983 32.174 350.04 31.868 350.04 31.532C350.04 31.16 349.98 30.836 349.86 30.56C349.746 30.284 349.587 30.056 349.383 29.876C349.179 29.696 348.936 29.561 348.654 29.471C348.378 29.381 348.078 29.336 347.754 29.336C347.43 29.336 347.13 29.384 346.854 29.48C346.578 29.576 346.332 29.711 346.116 29.885C345.906 30.053 345.729 30.257 345.585 30.497C345.441 30.731 345.333 30.986 345.261 31.262C345.213 31.436 345.141 31.562 345.045 31.64C344.949 31.718 344.826 31.757 344.676 31.757C344.646 31.757 344.613 31.757 344.577 31.757C344.547 31.751 344.511 31.745 344.469 31.739L343.632 31.595C343.716 31.007 343.878 30.488 344.118 30.038C344.358 29.582 344.661 29.201 345.027 28.895C345.399 28.589 345.822 28.358 346.296 28.202C346.776 28.04 347.292 27.959 347.844 27.959ZM353.551 39.893C353.551 39.755 353.575 39.626 353.623 39.506C353.677 39.38 353.749 39.272 353.839 39.182C353.935 39.086 354.049 39.011 354.181 38.957C354.313 38.903 354.457 38.876 354.613 38.876C354.793 38.876 354.952 38.909 355.09 38.975C355.234 39.041 355.351 39.134 355.441 39.254C355.537 39.368 355.609 39.503 355.657 39.659C355.705 39.809 355.729 39.974 355.729 40.154C355.729 40.424 355.69 40.706 355.612 41C355.534 41.288 355.423 41.573 355.279 41.855C355.135 42.143 354.955 42.422 354.739 42.692C354.529 42.962 354.289 43.211 354.019 43.439L353.749 43.178C353.671 43.106 353.632 43.022 353.632 42.926C353.632 42.848 353.674 42.767 353.758 42.683C353.818 42.617 353.893 42.527 353.983 42.413C354.079 42.305 354.175 42.179 354.271 42.035C354.367 41.891 354.454 41.732 354.532 41.558C354.616 41.384 354.676 41.198 354.712 41H354.595C354.439 41 354.298 40.973 354.172 40.919C354.046 40.865 353.935 40.79 353.839 40.694C353.749 40.592 353.677 40.475 353.623 40.343C353.575 40.205 353.551 40.055 353.551 39.893ZM366.579 39.614C367.113 39.614 367.59 39.524 368.01 39.344C368.43 39.164 368.784 38.912 369.072 38.588C369.366 38.264 369.588 37.877 369.738 37.427C369.894 36.977 369.972 36.482 369.972 35.942V28.103H371.709V35.942C371.709 36.686 371.589 37.376 371.349 38.012C371.115 38.648 370.776 39.2 370.332 39.668C369.894 40.13 369.357 40.493 368.721 40.757C368.085 41.021 367.371 41.153 366.579 41.153C365.787 41.153 365.073 41.021 364.437 40.757C363.801 40.493 363.261 40.13 362.817 39.668C362.373 39.2 362.031 38.648 361.791 38.012C361.557 37.376 361.44 36.686 361.44 35.942V28.103H363.177V35.933C363.177 36.473 363.252 36.968 363.402 37.418C363.558 37.868 363.78 38.255 364.068 38.579C364.362 38.903 364.719 39.158 365.139 39.344C365.565 39.524 366.045 39.614 366.579 39.614ZM381.32 30.119C381.266 30.209 381.209 30.278 381.149 30.326C381.089 30.368 381.011 30.389 380.915 30.389C380.813 30.389 380.693 30.338 380.555 30.236C380.423 30.134 380.252 30.023 380.042 29.903C379.838 29.777 379.589 29.663 379.295 29.561C379.007 29.459 378.656 29.408 378.242 29.408C377.852 29.408 377.507 29.462 377.207 29.57C376.907 29.672 376.655 29.813 376.451 29.993C376.253 30.173 376.103 30.386 376.001 30.632C375.899 30.872 375.848 31.133 375.848 31.415C375.848 31.775 375.935 32.075 376.109 32.315C376.289 32.549 376.523 32.75 376.811 32.918C377.105 33.086 377.435 33.233 377.801 33.359C378.173 33.479 378.551 33.605 378.935 33.737C379.325 33.869 379.703 34.019 380.069 34.187C380.441 34.349 380.771 34.556 381.059 34.808C381.353 35.06 381.587 35.369 381.761 35.735C381.941 36.101 382.031 36.551 382.031 37.085C382.031 37.649 381.935 38.18 381.743 38.678C381.551 39.17 381.269 39.599 380.897 39.965C380.531 40.331 380.078 40.619 379.538 40.829C379.004 41.039 378.395 41.144 377.711 41.144C376.877 41.144 376.115 40.994 375.425 40.694C374.741 40.388 374.156 39.977 373.67 39.461L374.174 38.633C374.222 38.567 374.279 38.513 374.345 38.471C374.417 38.423 374.495 38.399 374.579 38.399C374.705 38.399 374.849 38.468 375.011 38.606C375.173 38.738 375.374 38.885 375.614 39.047C375.86 39.209 376.154 39.359 376.496 39.497C376.844 39.629 377.267 39.695 377.765 39.695C378.179 39.695 378.548 39.638 378.872 39.524C379.196 39.41 379.469 39.251 379.691 39.047C379.919 38.837 380.093 38.588 380.213 38.3C380.333 38.012 380.393 37.691 380.393 37.337C380.393 36.947 380.303 36.629 380.123 36.383C379.949 36.131 379.718 35.921 379.43 35.753C379.142 35.585 378.812 35.444 378.44 35.33C378.074 35.21 377.696 35.09 377.306 34.97C376.922 34.844 376.544 34.7 376.172 34.538C375.806 34.376 375.479 34.166 375.191 33.908C374.903 33.65 374.669 33.329 374.489 32.945C374.315 32.555 374.228 32.075 374.228 31.505C374.228 31.049 374.315 30.608 374.489 30.182C374.669 29.756 374.927 29.378 375.263 29.048C375.599 28.718 376.013 28.454 376.505 28.256C377.003 28.058 377.573 27.959 378.215 27.959C378.935 27.959 379.592 28.073 380.186 28.301C380.78 28.529 381.299 28.859 381.743 29.291L381.32 30.119ZM394.87 41H393.52C393.364 41 393.238 40.961 393.142 40.883C393.046 40.805 392.974 40.706 392.926 40.586L391.72 37.472H385.933L384.727 40.586C384.685 40.694 384.613 40.79 384.511 40.874C384.409 40.958 384.283 41 384.133 41H382.783L387.94 28.103H389.713L394.87 41ZM386.419 36.212H391.234L389.209 30.965C389.077 30.641 388.948 30.236 388.822 29.75C388.756 29.996 388.69 30.224 388.624 30.434C388.564 30.638 388.504 30.818 388.444 30.974L386.419 36.212Z" fill="#1E212C"/>
</svg>
